<?xml version="1.0" standalone="no"?>
<!DOCTYPE svg PUBLIC "-//W3C//DTD SVG 20010904//EN"
 "http://www.w3.org/TR/2001/REC-SVG-20010904/DTD/svg10.dtd">
<svg version="1.0" xmlns="http://www.w3.org/2000/svg"
 width="3000.000000pt" height="2000.000000pt" viewBox="0 0 3000.000000 2000.000000"
 preserveAspectRatio="xMidYMid meet">

<g transform="translate(0.000000,2000.000000) scale(0.100000,-0.100000)"
fill="#000000" stroke="none">
<path d="M0 10775 l0 -9225 39 -36 c91 -82 85 -234 -13 -363 l-26 -35 0 -378
c0 -329 2 -378 15 -378 13 0 15 -27 15 -180 l0 -180 475 0 475 0 0 140 0 140
104 0 c85 0 105 -3 110 -16 3 -9 6 -72 6 -140 0 -76 4 -124 10 -124 6 0 10 48
10 124 0 119 1 124 24 139 37 25 76 112 76 172 0 57 12 75 51 75 44 0 51 -19
47 -130 l-3 -100 108 0 c60 0 117 -5 128 -10 25 -14 24 -55 -2 -73 -13 -9 -16
-17 -10 -22 18 -11 12 -53 -10 -68 -13 -9 -16 -17 -10 -22 19 -11 12 -53 -11
-69 -21 -15 -5 -16 191 -16 l214 0 -6 120 -6 121 36 39 c63 71 157 76 238 15
43 -33 43 -34 62 -13 22 25 66 48 90 48 12 0 29 -22 52 -65 18 -36 61 -95 96
-133 63 -67 63 -68 49 -100 l-13 -32 1409 0 1410 0 0 28 c0 31 26 62 53 62 25
0 47 -29 47 -61 l0 -29 693 0 694 0 6 145 c3 80 8 149 12 155 3 6 49 10 106
10 l99 0 0 -155 c0 -97 4 -155 10 -155 6 0 10 51 10 133 l0 133 31 30 c44 42
61 79 69 157 8 71 18 87 56 87 39 0 49 -26 49 -132 l0 -98 112 0 c104 0 113
-2 127 -22 20 -29 20 -34 -4 -58 -16 -16 -18 -25 -10 -40 12 -22 -2 -60 -21
-60 -7 0 -8 -7 -4 -18 4 -9 9 -22 12 -29 2 -6 -5 -21 -16 -32 -11 -11 -18 -27
-15 -36 5 -13 83 -15 655 -15 l649 0 -37 48 c-79 103 -105 196 -79 285 38 132
187 180 285 91 l38 -34 19 22 c26 29 92 58 134 58 48 0 113 -32 137 -66 70
-100 49 -243 -52 -362 l-37 -42 1047 0 1047 0 -53 63 c-29 34 -65 90 -82 125
-25 55 -29 72 -25 131 3 54 9 77 31 110 32 48 92 81 147 81 42 0 108 -29 134
-58 l19 -22 38 34 c65 59 160 60 226 3 48 -42 63 -82 63 -165 0 -85 -33 -158
-110 -245 l-52 -57 1011 0 1011 0 0 74 c0 41 4 77 9 80 5 3 7 15 4 26 -3 11 1
28 8 37 8 10 9 14 2 10 -8 -5 -11 0 -10 13 1 23 35 28 56 7 8 -7 11 -7 8 -1
-8 14 36 24 99 24 l44 0 0 -135 c0 -83 4 -135 10 -135 6 0 10 47 10 120 0 114
1 120 23 135 39 25 70 93 76 165 5 58 9 66 34 78 l27 13 0 158 c0 150 5 181
31 181 22 0 39 -35 39 -79 l0 -48 44 14 c63 21 109 0 137 -62 42 -95 -10 -205
-98 -205 -21 0 -48 7 -60 15 -18 13 -22 12 -38 -5 -14 -15 -16 -30 -12 -67 3
-27 2 -69 -2 -95 l-8 -48 117 0 c77 0 120 -4 128 -12 19 -19 14 -55 -9 -71
-13 -9 -16 -17 -10 -22 18 -11 12 -53 -10 -68 -13 -9 -16 -17 -10 -22 15 -8
14 -48 -1 -63 -9 -9 76 -12 385 -12 l397 0 0 85 0 85 110 0 110 0 0 -85 c0
-50 4 -85 10 -85 6 0 10 29 10 68 0 64 2 70 31 98 43 40 69 99 69 160 0 64 25
93 68 78 23 -8 28 -17 34 -59 5 -28 5 -78 2 -112 l-6 -63 114 0 c75 0 118 -4
126 -12 19 -19 14 -55 -10 -72 -12 -9 -16 -16 -9 -16 9 0 12 -10 9 -35 l-4
-35 182 0 181 0 7 42 c4 24 8 63 9 88 l2 45 103 3 102 2 0 -90 c0 -53 4 -90
10 -90 6 0 10 31 10 73 0 69 2 75 31 103 41 37 67 96 75 167 7 62 21 80 56 75
37 -5 49 -43 45 -139 l-3 -86 74 -7 c41 -3 95 -6 119 -6 37 0 45 -4 55 -25 10
-22 9 -29 -9 -47 -18 -17 -19 -25 -11 -44 9 -19 8 -28 -7 -44 -18 -20 -18 -20
178 -20 l197 0 0 85 0 85 110 0 110 0 0 -85 c0 -50 4 -85 10 -85 6 0 10 29 10
68 0 62 2 69 30 96 44 41 68 93 76 164 7 67 20 85 56 80 37 -5 49 -43 45 -141
l-3 -87 60 0 c34 0 66 -4 72 -8 6 -4 22 -27 34 -52 12 -25 31 -57 42 -72 11
-16 16 -32 13 -38 -4 -7 427 -10 1304 -10 l1311 0 0 135 0 135 110 0 110 0 0
-135 c0 -83 4 -135 10 -135 6 0 10 45 10 116 0 115 0 115 29 140 40 34 69 97
77 172 5 52 11 65 28 71 59 22 80 -19 73 -141 l-4 -88 113 0 c89 0 116 -3 128
-16 21 -21 20 -40 -3 -63 -12 -12 -16 -23 -10 -32 14 -22 11 -37 -10 -56 -14
-13 -17 -23 -11 -33 14 -22 12 -36 -6 -54 -14 -15 5 -16 205 -16 122 0 221 3
221 6 0 3 -9 17 -20 31 -11 14 -20 37 -20 50 0 16 -4 22 -12 17 -10 -6 -10 -4
0 7 13 14 17 61 5 72 -3 4 -7 17 -8 30 -1 12 -5 36 -8 52 -7 28 -5 31 20 34
15 1 35 3 43 3 55 1 204 54 194 70 -3 4 2 5 10 2 9 -4 37 10 68 33 48 34 58
38 114 38 52 0 67 -5 99 -29 79 -61 98 -181 47 -291 -16 -33 -41 -75 -56 -93
l-28 -32 236 0 236 0 0 180 0 180 110 0 110 0 0 -180 0 -180 43 1 c38 1 39 2
12 8 l-30 6 -3 151 -3 150 39 40 c40 43 62 98 62 158 0 52 15 76 48 76 46 0
52 -15 52 -127 l0 -103 106 0 c58 0 114 -5 125 -10 23 -13 26 -68 5 -76 -10
-4 -13 -15 -9 -38 3 -22 0 -38 -11 -49 -9 -8 -13 -23 -10 -31 10 -25 -5 -66
-23 -66 -13 0 -14 -3 -5 -12 15 -15 15 -51 0 -66 -9 -9 229 -12 1074 -12
l1087 0 3 42 3 43 108 3 107 3 0 -46 c0 -25 5 -45 10 -45 6 0 10 12 10 26 0
16 11 34 29 50 42 35 71 101 71 160 0 60 17 87 54 87 45 0 51 -15 51 -129 l-1
-104 113 0 c104 0 113 -2 127 -22 14 -20 14 -24 1 -45 l-15 -23 175 0 176 0
-6 54 c-7 52 -6 54 27 77 27 20 45 24 104 24 67 0 75 -3 114 -34 l41 -33 24
22 23 21 30 -65 31 -66 614 0 614 0 6 54 c3 30 12 67 20 83 56 108 185 135
274 58 l40 -34 19 20 c22 25 67 49 89 49 14 0 125 -48 185 -79 19 -10 39 -66
39 -113 l1 -38 165 0 165 0 0 23 c0 14 16 41 38 64 22 23 44 60 51 84 11 35
23 50 63 77 l49 33 -3 -95 -3 -96 112 0 c88 0 115 -3 127 -16 19 -18 21 -45 4
-62 -9 -9 64 -12 330 -12 l342 0 0 1195 0 1196 -66 -50 -66 -51 -46 33 c-26
17 -85 70 -133 117 -109 107 -153 189 -153 284 0 102 54 177 140 196 53 12
108 -2 155 -40 l40 -32 31 31 c17 17 47 34 65 37 l33 6 0 8539 0 8539 -4907 0
c-4144 -1 -4911 -3 -4926 -14 -12 -9 -14 -16 -8 -21 18 -10 13 -43 -10 -64
-13 -12 -17 -21 -10 -26 18 -10 13 -43 -10 -64 -13 -12 -17 -21 -10 -26 16
-10 13 -41 -6 -61 -15 -15 -35 -16 -173 -11 -85 3 -165 9 -177 13 -22 6 -23
10 -23 140 0 83 -4 134 -10 134 -6 0 -10 -57 -10 -150 l0 -150 -90 0 -90 0 -5
28 c-3 15 -12 53 -20 84 -8 32 -15 87 -15 123 l0 65 -1130 0 c-1099 0 -1130
-1 -1130 -19 0 -10 -7 -24 -15 -31 -11 -9 -14 -23 -9 -46 5 -26 2 -35 -14 -45
-16 -10 -18 -16 -8 -41 9 -26 8 -32 -9 -46 -17 -14 -19 -22 -11 -44 18 -52 1
-58 -163 -58 -80 0 -163 3 -183 6 l-38 7 0 158 c0 135 -2 159 -15 159 -13 0
-15 -26 -15 -170 l0 -170 -105 0 -105 0 0 170 0 170 -1326 0 -1326 0 -60 -45
-60 -45 -44 32 c-25 18 -50 38 -56 45 -8 11 -339 13 -1764 13 l-1753 0 -25
-25 c-14 -13 -20 -27 -15 -30 17 -11 9 -54 -12 -68 -13 -9 -16 -17 -10 -22 15
-8 14 -48 -1 -63 -8 -8 -57 -12 -156 -12 l-143 0 -39 33 -40 32 0 78 c0 44 -4
77 -10 77 -6 0 -10 -28 -10 -65 0 -36 -2 -65 -5 -65 -3 0 -27 11 -53 24 -26
13 -74 32 -105 41 -49 14 -57 20 -57 41 l0 24 -4740 0 -4740 0 0 -9225z
m18841 9165 c19 -5 48 -23 63 -39 l28 -29 44 33 c133 102 295 13 293 -161 -1
-128 -85 -246 -287 -403 l-43 -33 -75 57 c-98 76 -187 173 -224 248 -25 49
-30 72 -30 129 0 101 33 159 110 192 41 18 72 19 121 6z m-7383 -180 c9 -17
12 -53 9 -112 l-3 -88 108 0 c95 0 110 -2 128 -20 25 -25 25 -42 1 -64 -16
-15 -18 -22 -9 -42 10 -20 8 -28 -12 -49 -13 -14 -20 -25 -17 -25 4 0 -3 -17
-16 -37 -13 -21 -32 -60 -42 -87 l-19 -49 -138 7 c-75 3 -149 11 -163 16 l-25
10 0 148 0 148 31 30 c43 41 66 89 74 159 4 33 12 66 18 73 16 21 60 10 75
-18z m1274 -103 l43 -33 38 30 c30 24 50 31 97 34 35 3 72 -1 90 -8 64 -26
110 -107 110 -190 0 -63 -8 -74 -81 -108 -87 -41 -200 -146 -249 -231 -19 -33
-39 -61 -45 -61 -17 0 -162 132 -205 187 -79 100 -103 192 -77 284 26 89 80
128 174 129 55 0 66 -4 105 -33z m-3447 -16 c22 -10 49 -28 59 -40 l19 -21 26
24 c87 84 219 68 279 -32 39 -68 39 -163 -2 -245 -34 -69 -122 -167 -224 -249
l-74 -58 -46 32 c-87 61 -226 208 -258 273 -60 124 -30 265 68 314 53 26 100
26 153 2z m5363 -72 l43 -29 28 21 c15 11 36 22 47 24 10 2 20 4 22 5 1 2 5 3
10 5 4 1 15 5 25 10 28 12 93 -1 127 -25 76 -54 97 -184 49 -290 -14 -30 -49
-82 -77 -116 -49 -59 -199 -186 -226 -192 -19 -4 -151 103 -219 178 -103 114
-141 235 -103 334 43 111 168 146 274 75z m1305 -13 c18 -7 43 -25 56 -40 l25
-26 30 29 c85 82 214 64 273 -36 24 -41 28 -59 28 -118 -1 -60 -6 -79 -35
-135 -37 -69 -167 -208 -251 -267 l-46 -32 -79 63 c-156 123 -240 239 -251
348 -16 160 115 272 250 214z m-4713 -191 l0 -186 -107 3 -108 3 -3 183 -2
182 110 0 110 0 0 -185z m969 -186 c40 -106 127 -216 221 -282 24 -17 24 -19
7 -32 -12 -8 -14 -15 -8 -20 19 -11 12 -54 -10 -66 -24 -13 -326 -9 -346 4
-10 6 -13 50 -13 161 0 151 0 153 26 177 37 35 62 88 69 150 10 83 18 90 25
24 4 -33 17 -85 29 -116z m7403 124 c21 -18 25 -59 6 -47 -7 4 -4 -2 6 -14 16
-18 18 -32 13 -87 l-6 -65 114 0 c105 0 115 -2 129 -21 16 -23 12 -47 -11 -66
-11 -9 -12 -16 -3 -32 11 -22 -1 -61 -21 -61 -6 0 -5 -8 2 -21 12 -24 -2 -69
-21 -69 -7 0 -7 -6 0 -20 15 -29 3 -59 -26 -66 -32 -8 -324 1 -346 10 -16 7
-18 25 -18 158 0 147 0 151 24 169 42 33 69 88 75 153 5 47 10 60 21 58 8 -2
12 0 8 4 -9 8 10 34 25 34 6 0 19 -7 29 -17z m-6234 -125 c8 -8 12 -48 12
-115 l0 -103 106 0 c58 0 114 -5 125 -10 23 -13 26 -68 5 -76 -10 -4 -13 -15
-9 -38 3 -21 0 -38 -10 -47 -9 -9 -12 -27 -10 -46 4 -23 0 -34 -17 -46 -13 -9
-17 -17 -11 -22 16 -9 13 -51 -4 -65 -16 -14 -341 -11 -362 3 -10 6 -13 50
-13 161 0 151 0 154 24 169 37 25 76 112 76 172 0 57 12 75 50 75 14 0 31 -5
38 -12z m-1346 -85 c2 -21 2 -104 0 -185 l-3 -148 -105 0 -104 0 0 185 0 185
104 0 105 0 3 -37z m7378 -188 l0 -185 -111 0 -111 0 6 128 c3 70 6 151 6 180
l-1 53 65 -2 c45 -1 63 -5 59 -13 -5 -7 -2 -7 8 1 8 6 25 13 39 16 14 2 28 5
33 6 4 0 7 -82 7 -184z m-2687 89 c18 -9 42 -26 55 -37 l22 -21 28 27 c35 33
72 47 128 47 111 0 182 -93 171 -225 -6 -78 -41 -146 -117 -229 -61 -66 -194
-176 -214 -176 -22 0 -199 154 -242 211 -66 86 -73 105 -79 200 -4 60 15 105
41 95 8 -3 11 0 8 9 -8 20 52 103 79 108 48 9 89 6 120 -9z m-3553 -219 l0
-185 -110 0 -110 0 0 185 0 185 110 0 110 0 0 -185z m2426 -2 l-6 -72 116 -3
c107 -3 118 -5 131 -25 14 -20 13 -24 -9 -46 -21 -21 -23 -27 -12 -42 14 -19
9 -44 -13 -62 -9 -7 -11 -13 -4 -18 18 -11 12 -53 -10 -68 -13 -9 -16 -17 -10
-22 6 -3 11 -17 11 -29 0 -45 -18 -49 -193 -44 -89 3 -170 9 -179 13 -16 6
-18 24 -18 157 l0 150 39 44 c38 43 61 104 61 160 0 15 7 36 16 45 16 18 18
16 51 -24 34 -41 34 -43 29 -114z m-4137 57 c19 -5 53 -24 75 -42 25 -20 41
-27 44 -20 8 26 28 8 56 -48 28 -57 114 -153 183 -203 l33 -24 -31 -46 c-17
-26 -35 -45 -40 -41 -5 3 -6 -1 -4 -9 6 -15 -69 -89 -157 -156 l-58 -43 -42
33 c-152 117 -243 221 -274 314 -38 111 2 236 89 276 48 21 77 23 126 9z
m3921 -315 l0 -185 -110 0 -110 0 0 185 0 185 110 0 110 0 0 -185z m-650 4 c7
-12 10 -59 8 -115 l-3 -94 93 0 c58 0 92 -4 92 -11 0 -5 5 -7 10 -4 6 3 19 3
30 0 26 -8 27 -51 1 -66 -17 -11 -17 -14 -3 -42 14 -28 14 -31 -4 -46 -16 -13
-18 -21 -10 -45 9 -24 7 -31 -12 -46 -13 -11 -18 -21 -12 -25 14 -9 13 -48 -2
-63 -13 -13 -271 -17 -340 -6 l-38 7 0 154 0 154 35 36 c38 39 65 112 65 173
0 20 5 41 12 48 20 20 66 15 78 -9z m2707 -289 c105 0 105 0 99 -22 -39 -134
-47 -179 -44 -258 l2 -85 -134 1 c-74 0 -156 4 -182 8 l-48 7 0 147 0 147 60
65 c34 36 77 89 98 119 l37 54 3 -92 3 -91 106 0z m-2919 -107 l2 -183 -100 0
-100 0 0 43 c-1 23 -6 71 -13 107 -7 36 -11 100 -9 143 l3 78 107 -3 107 -3 3
-182z m-897 137 c20 -6 49 -23 64 -39 l29 -28 43 33 c131 100 292 14 293 -157
0 -132 -83 -250 -288 -408 l-42 -33 -58 43 c-97 73 -205 189 -240 258 -57 115
-40 244 40 304 49 37 95 45 159 27z m4371 0 c20 -6 50 -23 67 -39 l31 -29 31
29 c88 82 232 52 281 -59 29 -64 22 -169 -16 -238 -39 -71 -116 -155 -212
-230 l-84 -65 -62 47 c-97 73 -200 183 -233 249 -67 134 -37 278 69 326 47 21
76 23 128 9z m-887 -234 c4 -85 4 -159 1 -165 -5 -7 -47 -11 -112 -11 l-104 0
0 133 0 133 58 12 c31 7 73 21 92 31 19 11 40 19 46 20 8 1 14 -47 19 -153z
m-4584 -417 c6 -13 10 -58 7 -115 l-3 -94 112 0 c88 0 115 -3 127 -16 21 -21
20 -51 -3 -65 -15 -10 -17 -16 -7 -41 9 -26 8 -32 -9 -46 -17 -14 -19 -22 -11
-46 9 -24 7 -31 -12 -46 -13 -11 -18 -21 -12 -25 15 -9 12 -51 -5 -65 -17 -14
-340 -11 -362 3 -10 6 -13 50 -13 161 0 151 0 153 26 177 39 36 64 92 69 155
3 32 10 63 16 70 18 22 67 17 80 -7z m-1411 -84 c9 -10 13 -49 13 -115 l-1
-100 105 0 c57 0 113 -5 124 -10 23 -13 26 -68 5 -76 -10 -4 -12 -16 -9 -44 4
-30 2 -41 -10 -46 -12 -4 -14 -14 -10 -41 5 -27 2 -39 -11 -49 -14 -10 -15
-17 -7 -32 7 -14 6 -25 -6 -41 -15 -23 -19 -23 -187 -19 -94 1 -177 7 -183 11
-10 6 -13 49 -13 159 0 147 1 151 24 169 36 29 76 116 76 167 0 24 5 52 10 63
13 23 62 26 80 4z m5020 -70 c7 -9 11 -49 11 -113 l-1 -99 61 -7 c34 -3 88 -6
119 -6 44 0 59 -4 64 -16 9 -25 7 -49 -6 -62 -7 -7 -11 -28 -9 -47 2 -24 -2
-37 -12 -41 -11 -4 -14 -16 -10 -44 4 -30 2 -41 -10 -45 -11 -5 -14 -16 -10
-45 8 -56 -12 -63 -159 -58 -112 3 -121 5 -137 26 -9 13 -33 45 -53 72 -37 48
-38 51 -38 136 0 85 0 86 38 129 42 48 62 100 62 163 0 24 7 47 16 56 19 20
58 21 74 1z m2634 -14 c15 -17 17 -35 14 -115 l-3 -96 105 0 c79 0 111 -4 128
-16 27 -19 28 -45 2 -69 -14 -13 -17 -22 -10 -29 16 -16 12 -41 -10 -61 -14
-13 -17 -22 -10 -29 15 -15 12 -42 -5 -56 -11 -9 -14 -23 -9 -46 5 -27 2 -35
-21 -50 -23 -15 -43 -16 -168 -11 -78 4 -155 10 -172 15 l-30 8 -3 149 -3 149
35 35 c46 49 64 89 72 158 4 32 11 64 17 71 14 18 52 15 71 -7z m-6464 -226
l0 -185 -105 0 -105 0 0 185 0 185 105 0 105 0 0 -185z m1508 80 l-5 -76 97 7
c112 8 145 2 161 -27 9 -17 7 -26 -9 -48 -15 -21 -17 -32 -10 -45 8 -14 5 -25
-10 -45 -14 -19 -17 -32 -11 -42 13 -20 11 -27 -11 -49 -16 -16 -18 -25 -10
-40 14 -27 -3 -58 -37 -66 -32 -8 -277 3 -318 14 l-30 8 -3 151 -3 150 34 26
c29 22 46 52 77 132 6 16 18 22 50 23 l43 3 -5 -76z m-2908 -170 l0 -185 -110
0 -110 0 0 185 0 185 110 0 110 0 0 -185z m5020 14 c0 -49 -3 -89 -6 -89 -3 0
-26 16 -52 36 -25 19 -72 47 -104 62 -52 23 -58 29 -58 57 l0 30 110 -3 110
-3 0 -90z m-2330 -104 l0 -186 -107 3 -108 3 -3 183 -2 182 110 0 110 0 0
-185z m4960 0 l0 -185 -105 0 -105 0 0 185 0 185 105 0 105 0 0 -185z m-3122
-149 c15 -8 36 -23 46 -35 20 -22 46 -28 46 -11 0 5 20 21 45 36 39 22 54 26
104 22 109 -8 166 -78 166 -203 0 -60 -5 -79 -34 -132 -18 -34 -57 -89 -87
-121 -51 -57 -191 -172 -209 -172 -18 0 -158 115 -211 174 -31 33 -70 88 -87
121 -27 52 -32 71 -32 137 0 69 3 80 30 120 17 23 46 51 65 60 42 22 121 23
158 4z m2042 -286 c12 -7 15 -32 15 -115 l0 -105 109 0 c88 0 113 -3 128 -17
23 -21 23 -38 -3 -64 -16 -16 -18 -23 -8 -35 13 -16 -2 -64 -21 -64 -7 0 -7
-7 1 -21 12 -24 -2 -69 -21 -69 -7 0 -7 -7 1 -21 13 -25 -2 -68 -23 -70 -7 0
-23 -2 -36 -3 -17 -2 -28 7 -46 38 -47 81 -179 195 -261 226 -35 13 -33 49 6
86 42 39 67 98 73 169 3 32 11 62 18 66 17 11 50 11 68 -1z m-6333 -51 c15 -5
43 -24 61 -42 l32 -31 33 32 c59 57 157 69 219 27 51 -34 78 -96 78 -176 0
-99 -39 -171 -153 -284 -51 -50 -111 -103 -134 -119 l-43 -29 -42 29 c-84 57
-223 205 -256 273 -62 125 -33 255 67 308 48 25 94 29 138 12z m2933 -108 l42
-33 26 25 c35 33 73 47 128 47 104 0 174 -83 174 -207 0 -92 -41 -167 -153
-278 -91 -89 -93 -91 -160 -103 l-69 -12 -65 52 c-77 62 -153 152 -188 222
-20 39 -25 65 -25 120 0 137 67 210 187 204 53 -3 68 -9 103 -37z m3190 -102
c0 -34 -3 -39 -17 -35 -51 15 -113 26 -155 26 -40 0 -48 3 -48 18 0 10 3 22 7
25 3 4 53 7 110 7 l103 0 0 -41z m-282 -324 c20 -9 47 -26 59 -37 l23 -21 23
21 c12 11 39 28 59 37 128 53 248 -36 248 -183 0 -79 -21 -134 -81 -215 -53
-70 -221 -217 -249 -217 -27 0 -195 145 -245 212 -65 87 -85 136 -85 214 0
153 118 243 248 189z m-1204 -18 c16 -12 19 -29 20 -115 l1 -102 109 0 c88 0
113 -3 128 -17 22 -20 23 -46 3 -63 -11 -9 -14 -23 -9 -46 5 -26 2 -35 -14
-45 -16 -10 -18 -16 -8 -41 9 -26 8 -32 -9 -46 -17 -14 -19 -22 -11 -45 8 -21
6 -31 -6 -44 -14 -14 -39 -16 -165 -14 -81 1 -164 5 -183 9 l-35 8 2 154 2
153 30 31 c43 46 71 109 71 160 0 65 33 93 74 63z m-203 -229 c0 -7 1 -92 0
-188 l-1 -175 -104 -3 c-79 -2 -104 0 -107 10 -2 7 -3 93 -1 191 l3 177 104 0
c77 0 105 -3 106 -12z m-1243 -148 c9 -17 12 -52 9 -112 l-4 -88 113 0 c109 0
114 -1 129 -24 13 -19 14 -29 5 -45 -6 -12 -16 -21 -21 -21 -6 0 -8 -7 -5 -15
3 -8 9 -21 12 -29 3 -8 -4 -24 -16 -36 -17 -17 -19 -24 -9 -36 13 -16 -2 -64
-21 -64 -7 0 -7 -7 1 -21 8 -16 8 -28 0 -45 -10 -22 -16 -23 -113 -26 -104 -3
-251 7 -269 17 -5 4 -9 74 -9 156 l0 150 31 27 c42 35 69 96 69 159 0 34 6 57
16 68 23 23 66 15 82 -15z m-218 -387 l0 -188 -108 1 -107 1 -3 187 -2 186
110 0 110 0 0 -187z m-1354 153 c17 -13 19 -27 19 -115 l-1 -101 51 -1 c49 -1
107 -7 112 -13 2 -2 -13 -30 -32 -62 -40 -67 -72 -161 -82 -241 l-6 -55 -101
6 c-161 11 -146 -7 -146 168 l0 150 40 45 c42 49 60 94 60 157 0 64 42 94 86
62z m-223 -225 c16 -1 17 -17 17 -186 l0 -185 -110 0 -110 0 0 184 c0 184 0
185 23 188 18 2 110 2 180 -1z m810 -92 c12 -6 34 -23 50 -37 l27 -26 28 26
c42 39 66 48 132 48 58 0 62 -2 104 -43 52 -52 71 -116 61 -200 -13 -100 -103
-219 -250 -333 l-75 -57 -42 29 c-24 16 -84 70 -135 119 -69 68 -99 106 -122
155 -56 119 -35 251 49 308 37 25 134 31 173 11z m1502 -205 c13 -14 16 -34
13 -115 l-3 -99 111 0 c97 0 113 -2 129 -20 18 -20 14 -70 -6 -70 -6 0 -7 -13
-4 -33 5 -24 2 -37 -9 -47 -12 -9 -15 -22 -10 -45 4 -21 1 -35 -10 -44 -10 -8
-13 -23 -9 -46 4 -28 1 -36 -21 -50 -24 -16 -44 -17 -169 -12 -78 4 -155 10
-172 15 l-30 8 -2 149 -2 149 40 39 c40 40 69 112 69 169 0 62 47 90 85 52z
m-210 -404 l0 -185 -110 0 -110 0 -3 100 c-2 55 -1 137 3 182 l7 82 86 3 c48
2 96 3 107 3 19 0 20 -7 20 -185z m2272 -71 c15 -5 40 -22 55 -36 l28 -27 22
21 c91 83 225 67 285 -34 22 -38 27 -59 27 -112 0 -78 -24 -138 -87 -220 -43
-56 -221 -211 -242 -211 -21 0 -138 95 -207 169 -84 88 -119 155 -126 237 -7
95 23 163 92 205 35 21 108 25 153 8z m-3785 -170 l-4 -38 123 -3 124 -3 3
-33 c3 -26 -1 -34 -19 -40 -15 -6 -18 -11 -11 -16 18 -11 15 -64 -4 -74 -11
-6 -13 -11 -5 -16 18 -12 13 -54 -10 -69 -13 -9 -16 -17 -10 -22 17 -10 13
-51 -6 -66 -20 -17 -278 -16 -342 1 l-41 11 0 144 0 145 49 54 c31 35 52 68
56 90 l7 35 47 -31 c43 -29 46 -33 43 -69z m3069 -5 c9 -10 13 -47 12 -115 l0
-99 97 0 97 0 10 -45 c7 -30 7 -45 0 -45 -6 0 -2 -9 9 -21 17 -19 17 -22 2
-49 -9 -15 -13 -39 -11 -54 3 -15 -1 -33 -8 -43 -8 -9 -14 -32 -14 -52 0 -55
-24 -62 -185 -56 -74 3 -148 8 -165 13 l-30 8 -3 157 c-2 147 -1 157 17 167
36 19 72 95 78 162 3 35 10 69 16 76 13 17 62 15 78 -4z m-3286 -214 l0 -185
-110 0 -110 0 -3 155 c-2 85 0 170 3 188 l6 33 107 -3 107 -3 0 -185z m3073
-187 l-3 -188 -107 -3 -108 -3 0 191 0 190 110 0 110 0 -2 -187z m-1052 -288
c13 -20 16 -43 12 -115 l-4 -90 45 -1 c25 0 74 0 108 1 50 1 65 -2 82 -19 26
-26 26 -43 2 -65 -16 -15 -18 -22 -9 -42 10 -20 8 -28 -11 -48 -14 -15 -19
-26 -12 -31 17 -10 13 -40 -9 -60 -14 -13 -17 -22 -10 -29 16 -16 12 -41 -10
-61 -18 -16 -35 -17 -172 -12 -84 3 -165 9 -180 13 l-28 6 0 152 0 152 31 30
c42 39 69 99 69 154 0 25 7 56 16 68 21 30 59 29 80 -3z m606 -128 l43 -33 40
27 c67 46 78 45 161 -11 42 -27 82 -50 89 -50 24 0 35 -36 35 -110 0 -62 -5
-81 -32 -132 -35 -66 -131 -169 -226 -242 -75 -57 -73 -58 -181 41 l-70 63 20
56 c37 110 35 259 -7 402 -6 20 -3 22 39 22 36 0 54 -7 89 -33z m-822 -268 l0
-189 -110 0 -110 0 0 183 c0 101 3 187 7 191 4 4 53 6 110 5 l103 -1 0 -189z
m-498 -276 c21 -24 30 -106 19 -170 l-8 -53 112 0 c99 0 114 -2 130 -20 15
-17 16 -24 7 -45 -6 -14 -17 -25 -24 -25 -9 0 -9 -3 0 -12 19 -19 14 -55 -9
-71 -13 -9 -16 -17 -10 -22 18 -11 12 -53 -10 -68 -13 -9 -16 -17 -10 -22 6
-3 11 -17 11 -29 0 -45 -18 -49 -192 -44 -90 3 -171 8 -180 13 -16 6 -18 24
-18 159 0 151 0 153 26 177 39 36 65 95 71 158 6 59 25 91 53 91 9 0 24 -8 32
-17z m-202 -408 l0 -185 -110 0 -110 0 0 185 0 185 110 0 110 0 0 -185z m885
-1424 c22 -10 48 -28 59 -39 l19 -21 40 34 c130 112 315 -6 294 -187 -10 -83
-53 -155 -151 -254 -50 -50 -112 -105 -138 -122 l-47 -32 -73 58 c-97 78 -192
181 -224 244 -64 126 -31 273 70 319 52 24 100 24 151 0z m146 -3598 c10 -11
14 -46 14 -115 l0 -98 112 0 c104 0 113 -2 127 -22 20 -29 20 -34 -4 -58 -16
-16 -18 -25 -10 -40 12 -22 -2 -60 -21 -60 -6 0 -8 -7 -5 -15 3 -8 9 -21 12
-29 3 -8 -4 -24 -15 -35 -17 -17 -19 -25 -11 -41 14 -27 -3 -58 -36 -66 -32
-8 -277 3 -319 14 l-30 8 -3 153 -3 153 27 21 c36 28 74 112 74 165 0 24 5 52
10 63 13 24 62 25 81 2z m-213 -400 l-3 -188 -35 3 c-20 1 -38 10 -44 20 -5 9
-38 47 -73 83 l-63 66 0 101 0 102 110 0 110 0 -2 -187z m-665 -209 c18 -9 42
-26 55 -37 l22 -21 28 27 c35 33 72 47 128 47 53 0 92 -18 127 -59 83 -99 54
-257 -71 -393 -62 -67 -196 -178 -215 -178 -22 0 -184 138 -233 197 -71 87
-99 154 -98 235 0 56 5 74 30 114 16 26 45 55 64 65 43 23 120 25 163 3z
m-892 -25 c18 -18 20 -30 17 -120 l-3 -99 116 0 c76 0 119 -4 127 -12 19 -19
14 -55 -9 -71 -13 -9 -16 -17 -10 -22 18 -11 12 -53 -10 -68 -13 -9 -16 -17
-10 -22 18 -11 12 -53 -10 -68 -13 -10 -17 -17 -9 -22 6 -4 -8 -21 -36 -42
l-46 -35 -137 4 c-75 3 -144 9 -154 13 -16 7 -18 22 -16 155 l1 148 30 28 c43
41 67 95 75 164 4 46 11 65 27 75 27 19 32 19 57 -6z m-204 -406 l2 -183 -113
0 -114 0 -1 175 c-1 96 1 180 4 185 4 7 48 10 113 8 l107 -3 2 -182z m2961
145 c13 -18 20 -105 12 -167 l-6 -51 116 0 c77 0 120 -4 128 -12 19 -19 14
-55 -9 -71 -13 -9 -16 -17 -10 -22 18 -11 12 -53 -10 -68 -13 -9 -16 -17 -10
-22 18 -11 12 -53 -10 -68 -13 -9 -16 -17 -10 -22 16 -10 13 -51 -5 -66 -20
-17 -125 -20 -254 -9 -141 13 -130 -2 -130 169 l0 146 40 39 c43 41 70 110 70
176 0 20 5 41 12 48 16 16 63 15 76 0z m860 -12 c15 -8 35 -23 45 -34 19 -21
19 -20 64 14 40 31 51 34 111 34 55 0 74 -5 103 -24 45 -31 72 -85 77 -158 9
-124 -70 -248 -246 -385 l-83 -65 -42 28 c-83 57 -223 205 -258 274 -60 119
-39 247 50 307 40 27 135 32 179 9z m-1070 -393 l-3 -188 -107 -3 -108 -3 0
190 0 191 110 0 110 0 -2 -187z m-2115 -64 c21 -5 52 -23 70 -39 l32 -28 37
33 c69 63 177 57 241 -14 101 -112 57 -284 -114 -445 -42 -39 -96 -86 -122
-103 l-45 -33 -64 47 c-105 79 -194 177 -234 259 -33 66 -36 78 -32 142 4 87
38 144 101 173 48 21 76 23 130 8z m900 -300 c21 -5 52 -23 70 -39 l32 -28 32
29 c40 35 99 51 155 43 57 -9 121 -71 138 -134 36 -134 -46 -281 -249 -442
-85 -68 -71 -70 -196 34 -175 146 -234 277 -190 425 28 93 113 139 208 112z
m-2527 -83 c17 -13 19 -27 19 -120 l-1 -106 111 0 c99 0 114 -2 130 -20 15
-17 16 -24 7 -45 -6 -14 -16 -25 -22 -25 -7 0 -7 -7 1 -21 12 -24 -2 -69 -21
-69 -7 0 -7 -6 0 -20 13 -24 5 -56 -15 -64 -12 -4 -13 -10 -3 -31 9 -21 8 -28
-8 -46 -18 -20 -26 -21 -184 -17 -91 3 -173 8 -182 13 -16 6 -18 24 -18 156
l0 149 38 38 c41 41 62 96 62 161 0 28 6 47 20 61 24 24 39 25 66 6z m4425 -7
c19 -19 20 -30 17 -120 l-3 -99 117 0 c109 0 118 -1 129 -21 12 -23 -1 -69
-20 -69 -5 0 -4 -13 2 -31 11 -27 10 -33 -11 -49 -13 -11 -18 -21 -12 -25 17
-10 11 -54 -9 -67 -15 -9 -17 -15 -8 -29 8 -13 8 -24 -1 -43 l-12 -26 -139 0
c-77 0 -163 5 -191 11 l-50 11 0 149 0 150 29 25 c40 34 69 98 74 168 7 82 44
109 88 65z m2962 -33 c45 -34 45 -35 64 -14 30 34 69 48 131 48 172 0 236
-193 123 -367 -40 -61 -169 -189 -238 -236 l-42 -29 -63 48 c-98 75 -190 174
-227 243 -63 118 -52 232 30 305 37 34 43 36 108 36 64 0 73 -3 114 -34z
m-1877 -170 c17 -13 19 -27 19 -120 l-1 -105 114 -3 c105 -3 116 -5 129 -25
14 -20 13 -24 -9 -46 -18 -18 -21 -26 -12 -35 14 -13 8 -46 -12 -63 -10 -8
-11 -16 -3 -31 8 -15 6 -26 -7 -46 -10 -15 -17 -41 -15 -58 4 -52 -11 -57
-183 -53 -147 4 -156 5 -180 28 -25 24 -26 27 -26 160 l0 136 30 29 c44 41 62
82 68 153 4 50 9 67 26 78 26 19 37 19 62 1z m-5716 -201 l0 -185 -110 0 -110
0 0 185 0 185 110 0 110 0 0 -185z m4423 172 c2 -7 5 -90 5 -185 l0 -173 -111
3 -112 3 -3 170 c-1 93 0 175 2 182 7 18 212 18 219 0z m4611 -50 c15 -11 18
-28 17 -115 l-1 -102 106 0 c58 0 114 -5 125 -10 23 -13 26 -68 5 -76 -10 -4
-12 -16 -9 -44 4 -30 2 -41 -10 -45 -11 -5 -14 -16 -10 -45 4 -30 2 -41 -10
-45 -11 -5 -14 -16 -10 -45 8 -58 -11 -64 -183 -56 -78 3 -155 9 -173 12 l-31
7 0 152 0 152 38 40 c41 43 62 97 62 161 0 62 41 91 84 59z m-7533 -48 c6 -13
10 -58 7 -115 l-3 -94 112 0 c88 0 115 -3 127 -16 21 -21 20 -51 -3 -65 -15
-10 -17 -16 -7 -41 10 -26 8 -32 -12 -48 -13 -11 -18 -21 -12 -25 17 -11 11
-54 -9 -67 -16 -9 -17 -16 -9 -31 7 -14 7 -27 -1 -44 l-12 -25 -177 4 c-97 2
-183 7 -189 11 -10 6 -13 49 -13 156 l0 147 31 30 c43 41 66 90 72 157 4 33
11 65 18 73 18 22 66 18 80 -7z m4009 -239 l0 -140 -61 40 c-33 21 -82 46
-110 55 l-49 17 0 84 0 84 110 0 110 0 0 -140z m3320 -125 l0 -185 -110 0
-110 0 0 185 0 185 110 0 110 0 0 -185z m-5177 161 c18 -7 43 -25 56 -40 l25
-26 30 29 c80 77 202 67 247 -21 12 -24 31 -56 42 -71 16 -24 19 -39 14 -84
-11 -109 -96 -227 -251 -349 l-79 -63 -46 32 c-25 18 -87 73 -137 122 -106
106 -144 172 -151 267 -4 55 -1 70 24 118 45 88 138 124 226 86z m-2373 -18
c1 -7 2 -91 3 -186 l2 -172 -114 0 c-99 0 -112 2 -107 16 3 9 6 92 6 185 l0
169 105 0 c77 0 105 -3 105 -12z m5386 -7 c102 -46 133 -186 70 -316 -34 -67
-123 -166 -224 -247 l-74 -58 -45 32 c-82 59 -174 150 -212 210 l-37 58 33 68
c37 76 63 168 63 224 l0 38 60 0 c54 0 64 -3 97 -34 l38 -34 39 34 c55 48 123
56 192 25z m6072 -8 c13 -8 32 -23 44 -35 l20 -20 31 30 c61 58 165 63 231 11
73 -58 89 -189 36 -296 -37 -75 -126 -172 -225 -248 l-75 -58 -57 44 c-95 71
-205 189 -238 254 -42 83 -47 181 -13 244 27 51 61 80 109 91 43 10 107 3 137
-17z m-11999 -104 c32 -26 37 -27 51 -14 13 14 17 6 32 -70 19 -100 63 -198
119 -271 21 -28 39 -55 39 -61 0 -11 -72 -74 -153 -135 l-50 -37 -45 32 c-73
51 -188 164 -225 220 -19 29 -40 76 -48 105 -13 51 -12 53 12 69 48 34 129
117 156 160 33 51 52 51 112 2z m8965 -162 c50 -39 71 -89 71 -172 0 -87 -32
-156 -114 -247 -59 -65 -194 -178 -213 -178 -21 0 -158 112 -201 164 -75 90
-74 80 -15 111 127 65 238 184 279 298 9 27 21 39 39 43 14 3 29 7 34 8 34 8
91 -5 120 -27z m-7411 -23 c18 -9 42 -26 55 -37 l22 -21 28 27 c35 33 72 47
128 47 53 0 92 -18 127 -59 83 -99 54 -257 -71 -393 -59 -63 -196 -178 -213
-178 -19 0 -125 85 -196 156 -77 79 -128 166 -139 240 -7 49 14 129 47 175 39
56 145 77 212 43z m5807 -19 c12 -15 16 -188 4 -206 -3 -5 48 -9 113 -9 79 0
123 -4 131 -12 19 -19 14 -55 -9 -71 -13 -9 -16 -17 -10 -22 18 -11 12 -53
-10 -68 -13 -9 -16 -17 -10 -22 18 -11 12 -53 -10 -68 -13 -9 -16 -17 -10 -22
6 -3 11 -17 11 -29 0 -45 -18 -49 -192 -44 -90 3 -171 8 -180 13 -16 6 -18 24
-18 159 l0 151 30 29 c43 40 61 79 67 145 3 31 12 64 21 74 18 21 55 22 72 2z
m-3040 -25 c21 -11 45 -29 53 -40 14 -20 14 -19 38 6 36 39 72 54 129 54 85 0
148 -49 171 -133 27 -99 -13 -212 -113 -321 -69 -77 -202 -180 -221 -173 -7 3
-48 33 -91 68 -177 142 -260 294 -226 417 13 50 84 128 121 135 55 10 102 6
139 -13z m-5779 -177 c10 -11 14 -45 13 -115 l0 -98 104 0 c57 0 112 -5 123
-10 23 -13 26 -68 5 -76 -11 -4 -13 -16 -9 -41 5 -27 2 -39 -11 -49 -13 -9
-15 -17 -8 -31 10 -19 -1 -63 -16 -63 -5 0 -8 -19 -8 -42 l1 -43 -175 0 c-96
0 -183 3 -192 7 -16 7 -18 24 -18 156 l0 149 38 40 c42 44 62 97 62 166 0 33
5 49 18 56 26 16 58 13 73 -6z m8609 -198 l0 -185 -110 0 -110 0 0 185 0 185
110 0 110 0 0 -185z m-4596 -18 c16 -12 18 -28 18 -120 l-1 -106 109 1 c117 2
140 -6 140 -47 0 -12 -7 -28 -15 -35 -9 -8 -12 -22 -8 -41 3 -17 0 -35 -8 -45
-7 -9 -12 -31 -10 -50 2 -23 -2 -36 -12 -40 -11 -4 -14 -16 -10 -44 8 -59 -11
-64 -187 -56 -80 3 -157 9 -172 12 l-28 6 0 155 c0 154 0 155 25 175 38 30 67
94 72 162 7 80 40 107 87 73z m-4224 -181 l0 -185 -106 -3 c-58 -2 -108 -1
-110 1 -2 2 -4 87 -4 188 l0 183 110 0 110 0 0 -184z m8265 152 c11 -6 32 -22
46 -35 17 -16 29 -21 33 -14 10 16 26 14 26 -3 0 -7 19 -51 42 -97 31 -62 60
-103 114 -157 l74 -74 -36 -43 c-20 -23 -55 -58 -78 -78 l-42 -35 -114 3 -115
3 -75 79 c-121 125 -161 234 -126 340 19 58 70 112 118 123 37 9 102 3 133
-12z m2906 -189 c19 -19 21 -30 17 -120 l-4 -99 118 0 c109 0 118 -1 129 -21
13 -25 -2 -69 -23 -69 -9 0 -9 -3 0 -12 18 -18 15 -45 -8 -68 -11 -11 -15 -22
-10 -25 17 -10 11 -43 -11 -64 -13 -12 -17 -21 -10 -26 16 -10 13 -41 -6 -61
-15 -15 -35 -16 -178 -11 -88 3 -170 9 -182 13 -23 6 -23 9 -23 156 l0 149 39
37 c42 40 71 115 71 183 0 57 42 77 81 38z m-7153 -192 l2 -187 -110 0 -110 0
0 183 c0 101 2 186 4 188 2 2 51 4 108 3 l103 0 3 -187z m9456 137 c13 -12 16
-38 16 -120 l0 -104 113 0 c75 0 117 -4 125 -12 19 -19 14 -55 -9 -71 -13 -9
-16 -17 -10 -22 16 -9 13 -51 -4 -65 -9 -8 -12 -22 -8 -41 3 -17 0 -35 -8 -45
-7 -9 -12 -31 -11 -48 5 -56 -9 -60 -186 -53 -86 3 -167 9 -179 13 -23 6 -23
9 -23 157 l0 150 39 42 c42 46 61 95 61 159 0 64 47 97 84 60z m-11725 -8 c12
-15 17 -188 6 -206 -4 -6 37 -10 109 -10 91 0 118 -3 130 -16 22 -21 20 -50
-5 -67 -13 -9 -16 -17 -10 -22 18 -11 12 -53 -10 -68 -13 -9 -16 -17 -10 -22
18 -11 12 -53 -10 -68 -13 -9 -16 -17 -10 -22 16 -9 13 -51 -4 -65 -16 -14
-341 -11 -362 3 -10 6 -13 49 -13 160 l0 152 35 34 c38 36 65 108 65 171 0 20
5 41 12 48 16 16 63 15 77 -2z m-2536 -50 c18 -7 44 -25 58 -39 l26 -27 23 25
c83 89 240 62 291 -49 58 -127 -9 -285 -184 -434 -51 -44 -139 -103 -116 -78
19 20 -166 181 -249 218 -59 27 -92 94 -92 190 0 77 11 112 48 152 51 54 128
71 195 42z m15898 -33 c10 -11 14 -46 14 -115 l0 -98 103 0 c57 0 112 -5 123
-10 23 -13 26 -68 5 -76 -10 -4 -12 -16 -9 -44 4 -30 2 -41 -10 -45 -11 -5
-14 -16 -10 -46 5 -35 3 -41 -16 -46 -16 -4 -19 -9 -10 -19 6 -7 9 -25 7 -41
l-3 -28 -175 0 c-96 0 -183 3 -192 7 -16 7 -18 24 -18 156 l0 148 31 30 c43
40 69 99 69 161 0 57 17 83 54 83 13 0 30 -7 37 -17z m-9287 -42 c15 -17 17
-35 14 -121 l-3 -101 113 2 c76 1 117 -3 127 -11 22 -18 18 -57 -6 -73 -13 -9
-16 -17 -10 -22 18 -11 12 -53 -10 -68 -13 -9 -16 -17 -10 -22 17 -10 13 -43
-9 -65 -11 -11 -15 -22 -10 -25 16 -10 12 -42 -7 -61 -15 -15 -35 -16 -172
-11 -86 2 -166 9 -179 14 -23 9 -23 11 -23 157 l0 149 29 31 c43 45 61 88 68
158 8 84 47 114 88 69z m-2930 -14 c16 -11 18 -29 18 -119 l0 -106 109 0 c117
1 139 -7 139 -48 0 -12 -9 -29 -21 -37 -13 -9 -16 -17 -10 -22 15 -9 14 -50
-2 -64 -8 -6 -12 -23 -9 -41 2 -17 -2 -37 -9 -46 -7 -9 -12 -31 -10 -49 4 -53
-17 -58 -193 -52 -83 3 -161 9 -173 12 -23 7 -23 10 -23 157 l0 150 38 43 c42
48 62 100 62 163 0 62 41 91 84 59z m8066 -202 l0 -185 -66 0 c-59 0 -69 3
-104 33 l-40 32 0 153 0 152 105 0 105 0 0 -185z m-1471 134 c58 -32 85 -80
89 -160 7 -111 -32 -193 -142 -303 -58 -57 -169 -146 -184 -146 -19 0 -139 99
-206 170 -88 94 -126 171 -126 259 0 52 5 72 27 107 26 41 30 43 98 55 38 6
78 15 88 21 20 10 49 -3 90 -40 l27 -26 29 28 c57 55 148 70 210 35z m-2339
-9 c11 -21 16 -183 5 -200 -4 -6 34 -10 109 -10 91 0 118 -3 130 -16 20 -20
21 -63 1 -70 -11 -5 -14 -15 -9 -39 4 -21 1 -37 -9 -46 -9 -9 -12 -27 -10 -46
4 -23 0 -34 -17 -46 -13 -9 -17 -17 -11 -22 15 -8 14 -48 -1 -63 -13 -13 -271
-17 -340 -6 l-38 7 0 154 0 154 35 34 c37 37 65 113 65 175 0 20 5 41 12 48
19 19 66 15 78 -8z m-5612 -187 l2 -182 -110 -3 -110 -3 0 188 0 188 108 -3
107 -3 3 -182z m11732 2 l0 -185 -110 0 -110 0 0 185 0 185 110 0 110 0 0
-185z m1630 -80 l0 -185 -74 0 -73 0 -6 49 c-3 28 -18 83 -33 123 -15 40 -29
101 -31 136 l-5 62 111 0 111 0 0 -185z m-573 133 c48 -29 75 -79 80 -153 12
-137 -70 -259 -285 -424 l-42 -33 -68 50 c-37 28 -76 60 -86 71 -18 19 -17 21
24 70 26 30 39 54 34 62 -4 7 -3 10 4 6 15 -10 69 126 82 208 6 39 13 79 15
90 2 12 19 32 37 45 57 42 143 45 205 8z m-8707 -183 l0 -185 -110 0 -110 0
-1 158 c0 86 -2 169 -3 185 l-2 27 113 0 113 0 0 -185z m-2930 -20 l0 -185
-110 0 -110 0 0 185 0 185 110 0 110 0 0 -185z m11355 176 c3 -5 2 -12 -3 -15
-5 -3 -9 1 -9 9 0 17 3 19 12 6z m-16220 -27 c13 -14 16 -34 13 -114 l-3 -97
115 -7 c63 -4 120 -12 127 -18 19 -16 16 -45 -8 -67 -13 -12 -17 -21 -10 -26
16 -9 13 -41 -4 -58 -10 -10 -13 -25 -9 -45 4 -19 1 -34 -10 -45 -10 -10 -14
-25 -10 -44 4 -21 0 -33 -15 -47 -19 -18 -33 -19 -169 -12 -81 3 -159 9 -174
12 l-28 6 0 153 0 152 35 37 c37 40 65 115 65 177 0 54 49 79 85 43z m3025
-14 c21 -11 45 -29 53 -40 14 -20 14 -19 38 6 49 53 129 74 129 35 0 -47 54
-185 96 -248 44 -66 45 -69 31 -98 -36 -74 -258 -275 -290 -262 -31 12 -173
135 -220 191 -72 87 -102 155 -101 236 0 80 27 138 81 175 48 32 126 34 183 5z
m6088 -199 l2 -180 -110 -3 -110 -3 0 185 0 185 107 -2 108 -2 3 -180z m9681
115 c8 -10 11 -48 9 -115 l-3 -101 112 0 c88 0 115 -3 127 -16 22 -21 20 -50
-5 -67 -13 -9 -16 -17 -10 -22 18 -11 12 -53 -10 -68 -13 -9 -16 -17 -10 -22
18 -11 12 -53 -10 -68 -13 -9 -16 -17 -10 -22 16 -9 13 -51 -4 -65 -17 -14
-340 -11 -362 3 -10 6 -13 49 -13 160 0 140 2 153 19 164 37 23 73 99 78 165
3 35 10 69 16 76 13 16 62 15 76 -2z m-8231 -42 c22 -15 23 -21 20 -120 l-3
-104 116 0 c76 0 119 -4 127 -12 19 -19 14 -55 -9 -71 -13 -9 -16 -17 -10 -22
18 -11 12 -53 -10 -68 -13 -9 -16 -17 -10 -22 18 -11 12 -53 -10 -68 -13 -9
-16 -17 -10 -22 6 -3 11 -17 11 -29 0 -45 -18 -49 -192 -44 -90 3 -171 8 -180
13 -16 6 -18 24 -18 159 l0 152 35 34 c39 38 65 104 65 166 0 33 5 46 22 58
28 20 28 20 56 0z m-10770 -266 l-3 -183 -107 -3 -108 -3 0 186 0 185 110 0
110 0 -2 -182z m1267 162 c15 -16 17 -34 13 -120 l-4 -100 116 0 c120 0 140
-6 140 -42 0 -10 -9 -27 -20 -38 -11 -11 -15 -22 -10 -25 17 -10 11 -43 -11
-64 -13 -12 -17 -21 -10 -26 18 -10 13 -43 -10 -64 -13 -12 -17 -21 -10 -26
16 -10 13 -41 -6 -61 -15 -15 -35 -16 -173 -11 -85 2 -167 10 -182 16 l-28 11
0 145 0 145 39 39 c43 43 71 115 71 182 0 56 49 79 85 39z m4932 -9 c26 -12
52 -35 70 -62 25 -38 28 -51 28 -123 0 -68 -5 -89 -27 -131 -46 -86 -134 -180
-252 -268 l-48 -37 -46 33 c-85 59 -219 199 -242 252 -41 94 -42 100 -8 142
17 21 48 75 70 121 l39 82 54 0 c49 0 59 -4 94 -35 l38 -35 19 22 c26 29 92
58 134 58 19 0 54 -9 77 -19z m6533 -32 c19 -11 40 -28 47 -36 10 -13 17 -11
53 18 36 29 50 34 108 37 61 3 70 1 108 -26 55 -40 78 -91 79 -172 0 -77 -29
-145 -98 -231 -44 -54 -212 -198 -232 -199 -18 0 -171 127 -219 182 -144 165
-153 349 -22 429 43 26 130 25 176 -2z m6058 -216 l2 -183 -110 0 -110 0 0
185 0 186 108 -3 107 -3 3 -182z m-20817 157 c19 -5 49 -24 67 -41 l32 -31 32
31 c53 52 124 64 194 32 75 -34 109 -102 102 -204 -6 -103 -77 -216 -197 -316
l-51 -43 -47 35 c-65 47 -125 77 -208 102 -63 19 -73 26 -102 69 -39 57 -53
103 -53 174 0 90 35 151 105 183 45 21 75 23 126 9z m12599 -205 l0 -185 -110
0 -110 0 0 185 0 185 110 0 110 0 0 -185z m-3186 116 c15 -17 17 -35 14 -120
l-3 -101 116 0 c76 0 119 -4 127 -12 19 -19 14 -55 -9 -71 -13 -9 -16 -17 -10
-22 18 -10 13 -43 -10 -64 -13 -12 -17 -21 -10 -26 16 -9 13 -41 -4 -58 -10
-10 -13 -25 -9 -45 4 -20 1 -34 -12 -47 -17 -16 -32 -17 -174 -12 -85 4 -165
9 -177 13 -23 6 -23 9 -23 159 l0 152 35 37 c37 40 65 115 65 177 0 56 49 79
84 40z m6537 -26 l52 -36 26 25 c34 32 72 46 127 46 78 0 141 -50 165 -130 16
-53 -4 -167 -39 -230 -45 -80 -247 -270 -287 -270 -18 0 -196 151 -233 199
-18 23 -47 67 -63 97 -24 47 -29 68 -29 127 0 131 65 207 176 207 43 0 61 -6
105 -35z m-17703 13 c8 -8 12 -48 12 -115 l0 -103 106 0 c58 0 114 -5 125 -10
23 -13 26 -68 5 -76 -10 -4 -12 -16 -9 -44 4 -31 2 -41 -11 -46 -11 -4 -14
-13 -10 -29 8 -32 -4 -65 -24 -65 -12 0 -13 -3 -4 -12 7 -7 12 -25 12 -40 0
-21 -6 -29 -24 -34 -34 -8 -338 -1 -353 9 -10 6 -13 49 -13 156 l0 148 38 40
c41 43 62 97 62 161 0 24 7 47 16 56 18 19 55 21 72 4z m19255 -10 c12 -6 37
-24 56 -39 28 -23 38 -26 50 -16 8 7 12 7 8 1 -10 -18 90 -63 155 -70 9 0 24
-4 34 -8 10 -4 21 -1 26 6 6 10 8 10 8 1 0 -8 15 -13 40 -13 l40 0 0 -57 c0
-81 -40 -162 -126 -253 -73 -78 -191 -173 -207 -167 -6 2 -17 14 -26 27 -9 13
-11 21 -5 17 7 -4 14 5 18 24 9 44 8 201 -1 196 -5 -3 -8 12 -9 33 -1 48 -43
162 -57 153 -6 -3 -7 -1 -3 5 9 15 -24 64 -39 58 -6 -2 -12 2 -12 10 0 7 5 10
11 7 6 -4 5 1 -3 11 -11 13 -16 14 -24 4 -6 -9 -7 -8 -3 4 3 10 -5 30 -20 48
l-26 30 47 0 c25 0 56 -5 68 -12z m-14423 -193 l0 -185 -105 0 -105 0 0 185 0
185 105 0 105 0 0 -185z m13906 150 c13 -20 16 -43 12 -115 l-4 -90 112 0
c105 0 114 -1 128 -22 21 -29 20 -34 -5 -59 -15 -15 -18 -24 -10 -32 16 -16
13 -35 -10 -58 -16 -16 -18 -23 -8 -35 13 -16 -2 -64 -21 -64 -7 0 -7 -7 1
-21 8 -16 8 -28 0 -46 l-11 -25 -178 4 c-97 1 -183 7 -189 11 -10 6 -13 49
-13 156 l0 147 31 30 c40 37 66 94 75 164 4 30 11 61 17 68 16 21 55 14 73
-13z m3059 -21 l47 -36 27 25 c40 37 65 47 121 47 78 0 105 -19 120 -82 7 -29
23 -77 36 -106 22 -49 22 -55 8 -94 -33 -96 -123 -202 -255 -304 l-60 -46 -37
26 c-182 128 -294 277 -296 393 l-1 55 67 42 c37 22 85 58 105 78 21 20 46 37
55 38 9 0 38 -16 63 -36z m-23062 -4 c26 -16 47 -35 47 -42 0 -6 15 2 33 19
40 39 75 53 133 53 148 0 220 -171 141 -332 -15 -31 -57 -88 -93 -127 -63 -68
-189 -171 -209 -171 -16 0 -167 130 -216 186 -63 70 -86 111 -104 181 -48 188
116 330 268 233z m13704 -82 l33 -32 35 34 c33 32 41 35 108 38 62 3 77 1 106
-20 85 -57 107 -192 51 -305 -37 -75 -126 -172 -225 -248 l-75 -58 -75 58
c-162 124 -255 257 -255 366 0 62 25 133 56 161 44 39 77 49 143 44 55 -5 69
-10 98 -38z m-14438 -32 c8 -10 11 -48 9 -115 l-3 -101 90 0 90 0 22 -82 c19
-73 20 -84 7 -95 -10 -7 -12 -13 -5 -18 18 -11 12 -53 -10 -68 -13 -9 -16 -17
-10 -22 6 -3 11 -17 11 -29 0 -45 -18 -49 -193 -44 -89 3 -170 9 -179 13 -16
6 -18 24 -18 160 0 150 0 153 24 168 37 25 76 112 76 172 0 28 5 56 12 63 16
16 63 15 77 -2z m12959 -198 l-3 -183 -107 -3 -108 -3 0 186 0 185 110 0 110
0 -2 -182z m-11168 -18 l0 -180 -110 0 -110 0 0 180 0 180 110 0 110 0 0 -180z
m6896 28 l-5 -78 99 0 c118 0 150 -11 150 -52 0 -16 -6 -31 -14 -34 -10 -4
-12 -16 -9 -44 4 -30 2 -41 -10 -46 -12 -4 -14 -14 -10 -41 4 -25 2 -39 -8
-47 -8 -6 -14 -28 -14 -51 l0 -40 -115 -5 c-112 -5 -240 2 -260 15 -6 4 -10
66 -10 154 l0 148 40 41 c42 45 60 92 60 159 0 25 6 48 16 58 16 15 20 14 56
-22 l40 -38 -6 -77z m1553 118 c8 -10 11 -48 9 -115 l-3 -101 112 0 c88 0 115
-3 127 -16 20 -19 21 -48 2 -66 -8 -8 -11 -26 -9 -44 3 -19 -1 -36 -10 -45 -9
-9 -12 -27 -10 -46 4 -23 0 -34 -17 -46 -13 -9 -17 -17 -11 -22 15 -8 14 -48
-1 -63 -13 -13 -271 -17 -340 -6 l-38 7 0 158 c0 147 1 159 20 169 35 19 71
95 77 162 3 35 10 69 16 76 13 16 62 15 76 -2z m5225 -66 c3 -39 3 -82 0 -95
l-6 -25 121 0 c109 0 121 -2 131 -19 14 -28 13 -38 -11 -60 -13 -12 -17 -21
-10 -26 18 -10 13 -43 -10 -64 -13 -12 -17 -21 -10 -26 17 -10 13 -40 -9 -60
-14 -13 -17 -22 -10 -29 16 -16 12 -41 -10 -61 -18 -16 -35 -17 -172 -12 -84
3 -165 10 -180 16 l-28 11 0 148 0 148 28 21 c32 24 82 117 82 154 0 21 7 28
33 37 53 17 54 16 61 -58z m5056 -115 l0 -185 -110 0 -110 0 0 178 c0 98 3
182 7 185 3 4 53 7 110 7 l103 0 0 -185z m-2924 154 c16 -17 18 -35 17 -115
l-1 -94 112 0 c74 0 116 -4 124 -12 19 -19 14 -55 -9 -71 -13 -9 -16 -17 -10
-22 18 -11 12 -53 -10 -68 -13 -9 -16 -17 -10 -22 15 -9 14 -48 -1 -63 -7 -7
-11 -27 -10 -45 5 -55 -8 -59 -180 -55 -85 2 -165 9 -180 16 l-28 12 0 149 c0
146 0 149 24 164 33 22 76 112 76 162 0 73 46 108 86 64z m-11280 -246 c19
-129 -84 -291 -280 -436 -57 -43 -53 -44 -159 44 -140 115 -216 230 -225 334
-5 62 16 128 42 133 10 2 16 0 13 -5 -6 -9 -4 -9 163 -19 125 -7 188 3 285 47
28 12 53 22 58 21 4 -1 7 4 7 11 1 6 21 -10 45 -36 33 -36 46 -59 51 -94z
m16079 101 l47 -36 27 25 c40 37 65 47 121 47 79 0 133 -37 165 -112 57 -137
-38 -312 -263 -481 l-52 -40 -42 29 c-65 44 -204 180 -237 232 -63 101 -74
205 -27 288 33 60 77 84 152 84 56 0 67 -4 109 -36z m-22605 -150 l0 -176 -22
6 c-52 16 -125 34 -160 40 l-38 7 0 149 0 150 110 0 110 0 0 -176z m15450 -35
c0 -159 -1 -171 -17 -164 -10 4 -57 19 -105 33 l-88 25 0 42 c0 23 7 62 15 85
8 24 18 67 21 97 l7 53 83 0 84 0 0 -171z m10040 150 c7 -12 10 -59 8 -115
l-3 -94 112 0 c88 0 115 -3 127 -16 22 -21 20 -50 -5 -67 -13 -9 -16 -17 -10
-22 18 -11 12 -53 -10 -68 -13 -9 -16 -17 -10 -22 18 -11 12 -53 -10 -68 -13
-9 -16 -17 -10 -22 16 -9 13 -51 -4 -65 -16 -13 -326 -10 -357 4 -16 7 -18 25
-18 158 0 150 0 150 26 171 36 28 74 113 74 165 0 24 5 52 10 63 15 26 66 26
80 -2z m-16820 -174 l0 -185 -110 0 -110 0 0 185 0 185 110 0 110 0 0 -185z
m8528 169 c62 -27 66 -29 89 -74 43 -80 28 -201 -36 -293 -51 -75 -239 -247
-269 -247 -18 0 -153 113 -212 176 -71 77 -110 150 -117 218 l-5 53 75 7 c131
12 268 66 352 140 45 39 70 43 123 20z m-7461 -21 c5 -16 7 -67 7 -115 -2 -76
1 -88 15 -88 11 0 20 -15 28 -51 17 -71 53 -144 102 -209 73 -96 61 -104 -151
-98 -90 3 -171 8 -180 13 -16 6 -18 24 -18 160 0 150 0 153 24 168 35 23 76
112 76 165 0 62 14 82 55 82 29 0 36 -4 42 -27z m501 -170 l2 -183 -110 0
-110 0 0 185 0 186 108 -3 107 -3 3 -182z m7358 121 c-3 -26 -6 -70 -7 -98
l-1 -51 -13 60 c-7 33 -18 73 -24 89 -13 32 -3 46 33 46 17 0 18 -5 12 -46z
m-13787 -38 c8 -10 11 -48 9 -115 l-3 -101 116 0 c76 0 119 -4 127 -12 19 -19
14 -55 -9 -71 -13 -9 -16 -17 -10 -22 18 -11 12 -53 -10 -68 -13 -9 -16 -17
-10 -22 18 -11 12 -53 -10 -68 -13 -9 -16 -17 -10 -22 17 -10 13 -40 -8 -59
-17 -16 -38 -17 -170 -14 -142 3 -151 4 -175 27 -26 24 -26 27 -26 163 0 133
1 138 23 153 38 24 68 90 74 158 3 34 10 68 16 75 13 16 62 15 76 -2z m10325
-78 c12 -29 46 -83 74 -120 29 -37 52 -75 52 -85 0 -33 -46 -118 -98 -179 -51
-62 -206 -194 -228 -194 -31 0 -212 162 -264 236 -31 44 -60 116 -60 149 0 12
12 28 29 38 35 21 124 111 158 162 28 41 46 40 101 -5 l34 -28 24 25 c31 31
80 52 122 53 29 0 34 -4 56 -52z m-1674 2 c20 -5 51 -23 70 -39 l35 -29 37 33
c73 67 177 57 243 -22 38 -45 40 -52 44 -126 3 -71 0 -84 -28 -141 -37 -76
-125 -174 -225 -251 l-75 -57 -63 48 c-109 84 -193 177 -234 258 -33 69 -36
80 -32 144 4 87 38 144 101 173 47 21 76 23 127 9z m12818 -207 l2 -183 -110
0 -110 0 0 185 0 186 108 -3 107 -3 3 -182z m-20004 161 c13 -12 16 -38 16
-120 l0 -104 113 0 c75 0 117 -4 125 -12 19 -19 14 -55 -9 -71 -13 -9 -16 -17
-10 -22 16 -9 13 -50 -3 -64 -10 -8 -13 -23 -9 -46 4 -26 2 -36 -11 -41 -12
-5 -15 -14 -10 -44 10 -58 -9 -64 -190 -57 -83 3 -161 9 -173 13 -23 6 -23 9
-23 158 l0 152 35 34 c39 38 65 104 65 166 0 46 19 74 50 74 10 0 26 -7 34
-16z m4246 -179 l0 -185 -105 0 -105 0 0 89 c0 50 4 92 10 96 5 3 23 44 41 90
l32 84 46 4 c25 2 54 4 64 5 16 2 17 -13 17 -183z m-7722 38 c52 -50 61 -64
66 -105 14 -96 -32 -195 -144 -312 -66 -69 -90 -87 -147 -109 l-67 -27 -36 25
c-115 79 -223 207 -254 298 -9 26 -16 52 -16 57 0 5 23 16 50 24 70 21 162 72
216 119 36 32 48 37 54 26 7 -11 14 -9 37 12 43 41 64 48 125 49 56 0 58 -1
116 -57z m1802 -78 c0 -69 -2 -125 -4 -125 -3 0 -38 32 -78 71 -40 39 -88 82
-105 96 -24 18 -33 34 -33 54 l0 29 110 0 110 0 0 -125z m13987 68 c-3 -10 -5
-2 -5 17 0 19 2 27 5 18 2 -10 2 -26 0 -35z m6167 8 c15 -17 17 -35 14 -115
l-3 -96 109 0 c88 0 113 -3 128 -17 24 -21 23 -45 -2 -68 -14 -13 -17 -22 -10
-29 17 -17 11 -44 -12 -60 -17 -12 -20 -18 -10 -28 18 -18 15 -46 -7 -59 -15
-10 -16 -17 -8 -40 8 -21 7 -31 -3 -44 -12 -15 -35 -16 -184 -13 -94 2 -177 7
-183 11 -10 6 -13 49 -13 156 l0 148 35 37 c37 39 65 115 65 176 0 20 5 41 12
48 18 18 53 14 72 -7z m-3983 -7 c10 -12 14 -46 13 -115 l0 -99 104 0 c57 0
112 -5 123 -10 23 -13 26 -68 5 -76 -10 -4 -12 -16 -9 -44 4 -30 2 -41 -10
-46 -12 -4 -14 -14 -10 -41 4 -25 2 -39 -8 -47 -8 -6 -14 -28 -14 -51 l0 -40
-175 0 c-96 0 -183 3 -192 7 -16 7 -18 24 -18 156 l0 148 31 30 c43 40 69 99
69 161 0 57 17 83 54 83 13 0 30 -7 37 -16z m-1130 -85 c19 -19 21 -30 17
-120 l-4 -99 118 0 c108 0 118 -2 128 -20 13 -25 5 -56 -16 -64 -11 -4 -12
-10 -4 -25 14 -28 13 -38 -11 -60 -13 -12 -17 -21 -10 -26 18 -10 13 -43 -10
-64 -13 -12 -17 -21 -10 -26 17 -10 13 -40 -9 -60 -18 -16 -35 -17 -172 -12
-84 3 -165 9 -180 13 l-28 6 0 152 0 152 29 22 c39 28 69 94 77 167 9 83 42
107 85 64z m1697 7 c15 -8 35 -23 45 -34 19 -21 19 -20 64 14 37 28 53 34 93
34 27 0 52 -5 55 -10 4 -6 11 -7 17 -4 7 4 8 2 4 -5 -5 -7 9 -19 38 -32 66
-29 81 -57 81 -149 0 -67 -4 -82 -35 -139 -20 -38 -43 -66 -55 -69 -51 -14
-175 -86 -227 -131 -31 -28 -61 -51 -66 -51 -5 0 -17 11 -26 25 -12 18 -13 24
-4 23 7 -2 13 6 14 17 0 11 6 31 13 44 31 56 18 316 -16 316 -6 0 -15 4 -20 9
-4 5 -3 6 4 2 26 -14 21 16 -12 80 -19 37 -35 68 -35 70 0 9 44 3 68 -10z
m-15268 -181 l0 -185 -110 0 -110 0 0 185 0 185 110 0 110 0 0 -185z m15191
153 c-10 -11 -11 -9 -5 6 6 15 4 17 -6 11 -9 -6 -11 -4 -5 4 5 9 10 10 18 2 8
-8 7 -14 -2 -23z m-9199 -11 l43 -33 43 33 c38 29 51 33 103 33 68 0 105 -16
143 -60 56 -67 59 -170 7 -272 -50 -100 -96 -145 -165 -163 -33 -9 -90 -32
-128 -51 -65 -35 -69 -36 -93 -20 -56 37 -171 164 -204 225 -29 56 -33 72 -32
132 2 80 9 103 47 148 36 43 76 60 141 61 43 0 58 -5 95 -33z m4212 -30 c15
-11 17 -27 14 -115 l-3 -102 112 0 c88 0 115 -3 127 -16 20 -19 21 -63 2 -70
-10 -4 -12 -16 -9 -44 4 -30 2 -41 -10 -46 -11 -4 -14 -14 -10 -38 3 -21 0
-38 -10 -47 -8 -9 -13 -27 -10 -44 7 -56 -3 -60 -144 -59 -70 0 -154 4 -185 8
l-58 7 0 156 c0 154 0 155 25 175 38 30 67 94 72 162 3 34 10 67 16 74 12 16
48 16 71 -1z m5019 -12 c-3 -9 -8 -14 -10 -11 -3 3 -2 9 2 15 9 16 15 13 8 -4z
m-20648 -10 c17 -3 46 -19 66 -35 l37 -29 18 20 c31 34 73 51 128 51 89 1 151
-49 176 -141 25 -93 -15 -200 -114 -309 -76 -82 -204 -185 -219 -175 -94 54
-259 223 -293 298 -49 107 -41 205 22 275 34 38 94 62 134 55 8 -2 29 -6 45
-10z m3483 -15 c9 -17 12 -52 9 -112 l-4 -88 113 0 c105 0 114 -1 128 -22 21
-29 20 -34 -5 -59 -16 -16 -18 -23 -8 -35 13 -16 -2 -64 -21 -64 -7 0 -7 -7 1
-21 12 -24 -2 -69 -21 -69 -7 0 -7 -7 1 -21 8 -16 8 -28 0 -46 l-11 -25 -173
4 c-94 3 -180 8 -189 12 -16 7 -18 25 -18 155 l0 147 31 30 c41 38 67 96 75
170 4 32 12 62 18 67 21 14 60 2 74 -23z m12924 -12 c21 -6 50 -22 64 -34 l24
-23 46 34 c40 31 52 35 105 35 70 0 108 -17 143 -63 62 -81 56 -197 -14 -306
-45 -69 -150 -175 -227 -228 l-52 -36 -58 43 c-105 79 -187 169 -226 249 -41
82 -49 145 -21 166 14 10 15 15 4 35 -11 20 -10 29 4 55 17 31 77 71 103 68 7
0 10 3 7 8 -8 13 52 11 98 -3z m4248 -19 c0 -6 -4 -7 -10 -4 -5 3 -10 11 -10
16 0 6 5 7 10 4 6 -3 10 -11 10 -16z m-12581 -9 c19 -5 49 -23 66 -40 l32 -31
32 30 c87 81 225 57 279 -49 19 -37 23 -57 20 -115 -6 -123 -81 -233 -244
-361 l-84 -66 -58 43 c-100 76 -206 189 -240 258 -26 52 -32 76 -32 128 0 101
32 161 105 194 46 21 75 23 124 9z m15821 -170 l0 -180 -105 0 -105 0 0 180 0
180 105 0 105 0 0 -180z m-3980 -10 l0 -180 -110 0 -110 0 0 180 0 180 110 0
110 0 0 -180z m-12834 141 c-3 -5 2 -8 12 -7 22 1 28 -37 8 -57 -11 -10 -14
-25 -10 -45 4 -19 1 -34 -10 -45 -9 -8 -13 -23 -10 -31 9 -24 -4 -66 -21 -66
-8 0 -13 -6 -10 -12 2 -7 -16 -28 -41 -45 -44 -32 -46 -33 -152 -33 -59 0
-124 3 -144 6 l-37 7 0 88 0 88 65 20 c35 12 80 30 99 41 20 11 42 17 48 14 7
-4 9 -4 5 1 -4 4 14 24 40 45 42 35 53 39 105 39 32 1 56 -3 53 -8z m18039
-27 c13 -14 16 -34 13 -115 l-3 -99 105 0 c79 0 111 -4 128 -16 25 -18 29 -46
7 -67 -10 -10 -13 -25 -9 -44 4 -20 1 -33 -10 -42 -12 -10 -15 -23 -10 -46 5
-26 2 -36 -16 -48 -13 -9 -17 -17 -11 -22 16 -9 13 -51 -4 -65 -16 -13 -341
-11 -362 3 -10 6 -13 49 -13 156 l0 148 38 40 c41 43 62 97 62 161 0 63 47 94
85 56z m-6335 -199 l0 -185 -105 0 -105 0 0 185 0 185 105 0 105 0 0 -185z
m-20283 154 c15 -5 40 -22 56 -37 l27 -26 28 26 c35 34 72 48 128 48 148 0
220 -171 140 -334 -31 -63 -146 -187 -239 -256 l-57 -43 -75 58 c-99 76 -188
173 -225 248 -50 101 -40 215 26 281 16 15 38 32 49 37 29 11 109 11 142 -2z
m16921 -221 l-3 -183 -107 -3 -108 -3 0 186 0 185 110 0 110 0 -2 -182z
m-12158 -13 l0 -185 -110 0 -110 0 0 178 c0 98 3 182 7 185 3 4 53 7 110 7
l103 0 0 -185z m3333 140 c9 -2 17 1 17 6 0 5 5 9 10 9 6 0 9 -15 7 -35 -3
-20 0 -38 4 -41 5 -3 9 -32 9 -65 l0 -59 -110 0 -110 0 0 100 0 100 78 -6 c42
-3 85 -7 95 -9z m20828 -27 c6 -12 9 -60 7 -114 l-3 -94 112 0 c88 0 115 -3
127 -16 21 -21 20 -40 -3 -63 -12 -12 -16 -23 -10 -32 14 -22 11 -37 -11 -59
-11 -11 -15 -22 -10 -25 17 -10 11 -43 -11 -64 -13 -12 -17 -21 -10 -26 16
-10 13 -41 -6 -61 -15 -15 -35 -16 -173 -11 -85 3 -165 9 -177 13 -23 6 -23 9
-23 158 l0 152 35 34 c39 38 65 104 65 166 0 32 5 47 21 57 25 18 56 11 70
-15z m-22784 -9 c15 -5 42 -24 60 -41 30 -29 31 -29 42 -10 15 29 90 62 140
62 144 0 222 -166 150 -320 -14 -30 -49 -83 -77 -116 -51 -62 -206 -194 -228
-194 -20 0 -157 114 -217 180 -84 93 -112 156 -112 252 0 69 3 80 30 119 50
70 134 98 212 68z m21636 -70 c25 -47 28 -62 24 -117 -6 -80 -41 -150 -114
-232 -62 -68 -196 -180 -217 -180 -19 0 -170 125 -221 183 -65 74 -107 163
-109 231 0 30 2 57 6 61 4 4 31 1 60 -6 68 -17 208 -17 278 0 70 17 142 50
200 90 25 17 49 29 55 28 5 -2 23 -28 38 -58z m-12509 2 c15 -17 17 -35 14
-114 l-3 -95 44 -6 c24 -3 76 -6 115 -6 43 0 77 -5 84 -12 18 -18 14 -45 -9
-67 -13 -12 -17 -21 -10 -26 17 -10 13 -40 -9 -60 -14 -13 -17 -22 -10 -29 16
-16 12 -41 -10 -61 -14 -13 -17 -22 -10 -29 16 -16 12 -41 -10 -61 -17 -16
-31 -17 -112 -10 -51 4 -131 10 -178 14 l-85 6 -3 149 -3 148 37 36 c44 43 62
82 70 159 4 32 11 64 17 71 14 18 52 15 71 -7z m11146 -161 l0 -180 -110 0
-110 0 0 180 0 180 110 0 110 0 0 -180z m-14972 128 c8 -8 12 -48 12 -115 l0
-103 106 0 c58 0 114 -5 125 -10 23 -13 26 -68 5 -76 -10 -4 -12 -16 -9 -45 5
-34 3 -40 -17 -47 -16 -6 -19 -11 -12 -16 16 -10 15 -51 -2 -68 -8 -8 -11 -26
-9 -44 8 -52 -7 -56 -194 -52 -93 1 -174 7 -180 11 -10 6 -13 49 -13 159 0
149 0 150 25 170 38 30 67 94 72 162 3 34 10 67 16 74 12 15 59 16 75 0z
m17267 -283 l0 -180 -107 -3 -108 -3 0 186 0 186 108 -3 107 -3 0 -180z
m-4130 148 c14 -13 16 -33 13 -115 l-3 -98 105 0 c79 0 111 -4 128 -16 27 -19
28 -45 2 -69 -14 -13 -17 -22 -10 -29 15 -15 12 -42 -5 -56 -11 -9 -14 -22 -9
-42 4 -23 1 -35 -16 -53 -14 -15 -18 -25 -11 -30 19 -11 12 -44 -15 -61 -22
-15 -44 -16 -162 -11 -75 4 -152 9 -169 13 l-33 7 0 154 c0 154 0 155 25 175
38 30 67 94 72 162 5 62 20 86 54 86 10 0 25 -7 34 -17z m-15649 -17 c17 -13
19 -27 19 -120 l0 -105 120 -3 120 -3 3 -28 c2 -16 -2 -35 -10 -44 -7 -8 -11
-29 -9 -45 1 -16 -3 -36 -10 -45 -7 -8 -12 -30 -11 -47 2 -20 -3 -38 -12 -45
-11 -9 -12 -19 -6 -36 6 -16 4 -29 -7 -45 -16 -22 -18 -23 -177 -17 -89 3
-171 9 -183 13 -23 6 -23 9 -23 160 0 152 0 154 25 170 36 23 75 109 75 164 0
75 39 110 86 76z m-5206 -31 c9 -10 13 -49 13 -115 l-1 -100 105 0 c57 0 113
-5 124 -10 23 -13 26 -68 5 -76 -10 -4 -13 -15 -9 -38 4 -27 1 -36 -17 -49
-13 -9 -17 -17 -11 -22 18 -11 12 -53 -10 -68 -13 -9 -16 -17 -10 -22 16 -9
13 -51 -4 -65 -16 -14 -341 -11 -362 3 -10 6 -13 49 -13 156 l0 148 38 40 c40
42 62 97 62 157 0 21 5 46 10 57 13 23 62 26 80 4z m-1435 -11 c13 -14 16 -34
13 -115 l-3 -99 105 0 c79 0 111 -4 128 -16 28 -19 28 -47 1 -73 -13 -12 -17
-21 -10 -26 16 -9 13 -41 -4 -55 -11 -9 -14 -23 -9 -46 5 -26 2 -35 -14 -45
-16 -10 -18 -16 -8 -41 10 -27 8 -32 -14 -50 -23 -19 -34 -20 -160 -14 -74 4
-152 9 -172 13 l-38 6 0 154 c0 154 0 155 25 175 38 29 65 90 74 164 4 38 14
69 22 75 21 13 46 11 64 -7z m12765 -163 l0 -169 -36 -7 c-20 -3 -38 -4 -40
-2 -2 2 -9 30 -15 63 -12 65 -52 161 -93 220 -42 62 -39 64 79 64 l105 0 0
-169z m3783 153 c18 -9 42 -26 55 -37 l22 -21 28 27 c88 84 231 56 282 -56
l17 -38 -43 -87 c-25 -49 -49 -116 -56 -152 -9 -54 -19 -72 -52 -109 -47 -50
-163 -141 -180 -141 -24 0 -195 151 -241 212 -73 96 -88 136 -84 227 5 89 29
135 89 170 43 25 118 27 163 5z m3760 5 c12 -6 34 -23 49 -36 l26 -25 42 33
c39 32 47 34 114 34 58 0 77 -4 104 -23 49 -36 75 -95 75 -172 0 -100 -34
-163 -152 -280 -53 -53 -115 -108 -139 -124 l-42 -29 -75 58 c-98 75 -188 173
-222 243 -80 164 -7 332 145 332 29 0 63 -5 75 -11z m-11363 -204 l0 -185
-110 0 -110 0 0 185 0 185 110 0 110 0 0 -185z m2101 134 c6 -13 10 -58 7
-115 l-3 -94 112 0 c88 0 115 -3 127 -16 21 -21 20 -51 -3 -65 -15 -10 -17
-16 -7 -41 10 -26 8 -32 -12 -48 -13 -11 -18 -21 -12 -25 17 -11 11 -53 -11
-68 -13 -9 -16 -17 -10 -22 16 -9 13 -51 -4 -65 -16 -14 -341 -11 -362 3 -10
6 -13 49 -13 159 l0 150 39 44 c39 45 61 104 61 166 0 19 5 39 12 46 20 20 66
15 79 -9z m1118 7 c8 -10 11 -48 9 -115 l-3 -101 116 0 c76 0 119 -4 127 -12
19 -19 14 -55 -9 -71 -13 -9 -16 -17 -10 -22 18 -11 12 -53 -10 -68 -13 -9
-16 -17 -10 -22 18 -11 12 -53 -10 -68 -13 -9 -16 -17 -10 -22 16 -9 13 -51
-4 -65 -17 -14 -340 -11 -362 3 -10 6 -13 49 -13 158 l0 150 34 33 c38 39 66
110 66 171 0 22 5 46 12 53 16 16 63 15 77 -2z m-4065 -35 c15 -16 17 -36 14
-120 l-3 -101 116 0 c76 0 119 -4 127 -12 19 -19 14 -55 -9 -71 -13 -9 -16
-17 -10 -22 18 -11 12 -53 -10 -68 -13 -9 -16 -17 -10 -22 18 -11 12 -53 -10
-68 -13 -9 -16 -17 -10 -22 6 -3 11 -17 11 -29 0 -45 -18 -49 -188 -43 -86 3
-167 9 -179 12 -23 7 -23 11 -23 157 l0 150 39 44 c39 45 61 104 61 165 0 59
49 88 84 50z m9425 -65 c8 -10 11 -48 9 -115 l-3 -101 112 0 c88 0 115 -3 127
-16 22 -21 20 -50 -5 -67 -13 -9 -16 -17 -10 -22 18 -11 12 -53 -10 -68 -13
-9 -16 -17 -10 -22 18 -11 12 -53 -10 -68 -13 -9 -16 -17 -10 -22 16 -9 13
-51 -4 -65 -16 -14 -341 -11 -362 3 -10 6 -13 49 -13 160 l0 152 35 34 c38 36
65 108 65 171 0 20 5 41 12 48 16 16 63 15 77 -2z m4559 -178 l-3 -183 -107
-3 -108 -3 0 186 0 185 110 0 110 0 -2 -182z m885 171 c12 -6 34 -23 49 -37
l28 -26 25 24 c24 23 25 23 82 7 32 -9 89 -19 126 -23 63 -6 69 -9 84 -38 28
-52 23 -151 -12 -222 -31 -64 -185 -228 -262 -279 l-43 -28 -52 41 c-29 22
-77 62 -107 89 l-53 48 25 80 c14 44 28 109 32 145 6 58 -5 173 -21 214 -5 13
2 16 36 16 23 0 51 -5 63 -11z m-16533 -194 l0 -185 -110 0 -110 0 0 185 0
185 110 0 110 0 0 -185z m-5212 -22 l2 -183 -110 0 -110 0 0 178 c0 98 3 182
7 186 4 4 52 5 107 4 l101 -3 3 -182z m4385 171 c18 -9 42 -26 55 -37 l22 -21
28 27 c56 53 153 64 213 24 32 -22 34 -26 40 -97 3 -41 11 -101 19 -132 12
-54 12 -58 -13 -100 -33 -56 -95 -128 -111 -128 -6 0 -12 10 -13 22 -2 21 -21
40 -34 32 -4 -2 -9 2 -12 9 -3 8 1 14 9 14 8 0 14 -5 14 -10 0 -6 3 -8 6 -5 8
9 -21 71 -41 88 -17 13 -18 13 -10 0 4 -8 14 -22 22 -32 9 -10 11 -18 4 -22
-5 -4 -12 3 -16 14 -4 11 -11 18 -16 15 -5 -3 -6 1 -3 9 3 9 1 16 -6 16 -6 0
-8 5 -5 10 3 6 1 10 -6 10 -8 0 -5 5 5 13 17 12 17 14 -1 28 -16 12 -17 12 -8
-1 6 -9 2 -7 -7 3 -10 11 -18 25 -18 32 0 16 -160 164 -211 194 -21 12 -39 27
-39 32 0 15 99 10 133 -7z m-5815 -186 l-3 -183 -107 -3 -108 -3 0 186 0 185
110 0 110 0 -2 -182z m21476 163 c21 -5 53 -24 71 -41 l32 -31 32 30 c41 39
102 56 155 44 l41 -8 12 -86 c7 -47 24 -117 38 -157 24 -66 25 -74 11 -100
-31 -59 -99 -134 -190 -207 l-95 -76 -58 42 c-86 63 -196 176 -231 239 -34 59
-38 101 -23 223 8 67 35 100 97 122 46 17 57 17 108 6z m-10444 -226 l0 -185
-105 0 -105 0 0 185 0 185 105 0 105 0 0 -185z m1128 -2 l2 -183 -110 0 -110
0 0 185 0 186 108 -3 107 -3 3 -182z m3868 153 c17 -13 19 -27 19 -120 l-1
-106 111 0 c73 0 115 -4 123 -12 16 -16 15 -53 -1 -67 -8 -6 -12 -23 -9 -41 2
-17 -2 -37 -9 -46 -7 -9 -12 -30 -10 -46 1 -16 -3 -36 -10 -45 -8 -8 -12 -29
-10 -45 5 -48 -12 -58 -98 -58 l-77 0 -64 66 c-36 36 -84 77 -107 92 l-43 27
0 71 c0 66 2 72 31 100 43 40 69 99 69 158 0 74 38 106 86 72z m-17455 -27 c7
-14 10 -56 7 -115 l-4 -94 112 0 c89 0 116 -3 128 -16 21 -20 20 -40 -3 -63
-13 -13 -16 -23 -9 -36 11 -19 -4 -65 -22 -65 -7 0 -7 -6 0 -20 13 -25 5 -56
-16 -64 -12 -4 -13 -10 -4 -26 17 -31 3 -63 -23 -56 -115 34 -228 44 -314 27
l-43 -8 0 144 0 145 39 44 c35 40 61 103 61 150 0 21 48 74 67 74 7 0 17 -10
24 -21z m9398 4 c-13 -17 -13 -17 7 0 14 11 38 17 72 17 l52 0 0 -185 0 -185
-110 0 -111 0 2 183 1 184 50 2 c47 1 50 0 37 -16z m6649 -4 c24 -12 48 -29
54 -39 10 -16 15 -15 55 16 40 30 51 34 106 34 63 -1 82 -8 130 -47 55 -43 74
-153 42 -243 -21 -60 -96 -161 -160 -217 l-55 -47 35 -28 c75 -63 67 -191 -16
-234 -61 -31 -161 -7 -188 45 -22 41 -23 104 -3 143 l19 37 -63 50 c-78 63
-159 159 -190 226 -31 65 -33 168 -5 223 49 95 144 127 239 81z m3897 -38 c22
-10 49 -28 59 -39 l19 -22 38 34 c100 91 255 36 288 -102 32 -131 -54 -281
-247 -430 l-79 -61 -54 40 c-129 96 -259 245 -230 264 11 6 2 45 -10 45 -5 0
-9 7 -9 16 0 8 -4 12 -10 9 -5 -3 -10 -1 -10 5 0 6 7 13 15 16 9 4 15 20 16
43 1 36 1 36 8 6 4 -16 4 -38 -1 -47 -13 -27 -9 -44 5 -24 16 22 22 96 7 96
-6 0 -8 15 -5 40 2 21 0 42 -5 45 -18 11 10 46 53 66 53 23 101 24 152 0z
m-997 -188 l2 -183 -110 0 -110 0 0 185 0 186 108 -3 107 -3 3 -182z m-12043
153 c17 -12 20 -27 20 -115 0 -61 4 -102 10 -102 5 -1 60 -4 120 -8 l110 -6 3
-28 c2 -16 -2 -35 -10 -44 -7 -8 -11 -29 -9 -45 1 -16 -3 -36 -10 -45 -7 -8
-12 -30 -10 -49 2 -23 -2 -36 -12 -40 -11 -4 -14 -16 -10 -44 8 -59 -11 -64
-187 -56 -80 3 -157 9 -172 12 l-28 6 0 152 0 152 31 30 c43 40 69 99 69 158
0 74 38 106 85 72z m12830 -69 c-2 -12 -7 -41 -11 -64 -4 -24 -10 -43 -14 -43
-5 0 -6 10 -3 23 4 18 3 19 -6 7 -9 -12 -10 -8 -5 15 4 17 10 37 15 46 5 9 5
19 2 23 -3 3 -1 6 6 6 7 0 9 5 5 12 -4 6 -3 8 4 5 5 -4 9 -17 7 -30z m7430
-56 c22 -10 48 -28 59 -39 l19 -22 33 30 c108 94 264 40 293 -101 20 -96 -9
-179 -98 -287 -51 -61 -206 -192 -227 -192 -21 0 -155 112 -217 180 -72 80
-107 151 -114 229 -5 52 -2 68 21 115 47 95 138 130 231 87z m-9915 -81 c0
-44 -2 -80 -4 -80 -2 0 -23 9 -47 19 -24 11 -72 25 -106 31 l-63 13 0 48 0 49
110 0 110 0 0 -80z m-17470 -98 l0 -168 -47 -17 c-27 -9 -74 -17 -105 -17
l-58 0 0 185 0 185 105 0 105 0 0 -168z m12161 98 c17 -10 19 -22 19 -115 l0
-105 110 0 c105 0 111 -1 132 -25 12 -14 27 -25 34 -25 19 0 71 -56 76 -83 3
-13 1 -34 -3 -45 -7 -19 -16 -22 -73 -22 l-64 0 -4 -35 c-4 -32 -2 -35 22 -35
14 0 41 11 59 24 59 44 87 0 30 -48 -24 -20 -41 -26 -79 -26 -40 0 -50 -4 -55
-20 -3 -11 -18 -23 -32 -26 -29 -8 -270 2 -321 12 l-32 7 0 154 0 155 26 21
c37 29 74 112 74 169 0 67 32 94 81 68z m2526 -62 c30 -29 31 -29 42 -10 6 11
30 29 54 41 129 63 257 -21 263 -172 2 -57 4 -61 33 -73 33 -14 71 -67 71 -99
0 -37 -20 -45 -108 -45 -82 0 -83 0 -77 -22 16 -53 68 -62 120 -22 38 29 55
25 55 -12 0 -60 -133 -87 -202 -41 l-34 24 -43 -39 c-48 -42 -62 -46 -81 -23
-7 8 -28 15 -47 15 -59 0 -123 54 -123 105 0 16 -86 62 -96 52 -3 -3 -7 -35
-9 -71 -4 -74 -9 -86 -34 -86 -32 0 -41 22 -41 97 0 76 -18 123 -46 123 -11 0
-14 -21 -14 -94 0 -111 -4 -126 -36 -126 -32 0 -35 9 -37 121 -2 90 -3 94 -25
97 -31 5 -27 46 6 50 17 3 22 10 22 35 0 18 4 37 8 43 11 17 48 34 74 34 18 0
33 14 60 55 20 31 38 61 40 67 6 16 115 27 148 15 14 -4 39 -22 57 -39z
m-7767 -143 l0 -185 -110 0 -110 0 0 185 0 185 110 0 110 0 0 -185z m773 122
c-9 -15 -21 4 -15 25 5 21 6 21 12 2 4 -10 5 -22 3 -27z m6202 11 c-1 -23 4
-28 22 -28 16 0 27 -8 33 -24 5 -13 19 -27 31 -31 36 -12 99 -76 126 -129 l25
-50 -21 -17 c-60 -49 -224 -85 -340 -75 -119 9 -121 11 -121 65 1 84 58 167
133 194 22 7 26 12 15 19 -10 7 -9 11 6 23 11 8 28 15 38 15 15 0 16 3 7 19
-17 26 -4 53 23 49 18 -2 23 -9 23 -30z m14672 2 c8 -16 11 -56 9 -112 l-3
-88 106 0 c110 0 132 -7 144 -43 4 -11 -1 -25 -13 -37 -15 -15 -18 -25 -11
-38 12 -23 -4 -62 -25 -62 -12 0 -14 -4 -7 -12 22 -28 22 -49 2 -69 -14 -14
-17 -24 -11 -36 14 -24 2 -53 -25 -59 -32 -8 -323 1 -346 11 -16 7 -18 20 -14
157 l5 150 30 31 c42 45 61 86 68 154 4 32 11 64 17 71 16 21 60 10 74 -18z
m-14397 -100 c0 -11 -6 -20 -14 -20 -20 0 -27 -26 -16 -56 20 -51 -8 -59 -39
-11 -11 17 -28 42 -37 55 -13 17 -14 26 -6 34 9 9 18 6 35 -10 l24 -22 11 25
c14 30 42 33 42 5z m-3145 -24 c3 -11 4 -93 3 -181 l-3 -160 -24 -3 c-15 -2
-28 3 -33 12 -8 14 -12 14 -38 1 -47 -25 -94 -19 -128 14 -63 64 -52 193 19
232 34 18 96 15 119 -6 20 -18 20 -17 20 38 0 37 5 61 15 71 19 19 44 11 50
-18z m1779 18 c13 -13 16 -44 16 -178 0 -167 -4 -186 -42 -186 -9 0 -21 7 -26
16 -9 16 -11 16 -33 0 -30 -20 -88 -21 -117 0 -53 37 -70 149 -32 211 27 45
82 61 134 39 21 -9 39 -16 41 -16 1 0 3 26 4 57 3 70 22 90 55 57z m2856 -97
l0 -91 53 52 c38 37 58 51 70 46 25 -9 21 -50 -8 -72 -14 -11 -25 -25 -25 -31
0 -6 16 -36 36 -66 39 -62 42 -98 7 -103 -22 -3 -31 7 -89 104 -18 30 -42 1
-46 -54 -3 -45 -4 -47 -33 -47 l-30 0 -3 175 c-2 154 0 176 14 187 12 9 22 9
35 2 16 -8 19 -22 19 -102z m-3992 77 c4 -27 -21 -47 -48 -39 -20 6 -28 44
-13 59 15 15 58 1 61 -20z m3869 10 c8 -22 -10 -49 -32 -49 -22 0 -40 27 -32
49 8 21 56 21 64 0z m-1864 -45 c-1 -8 -10 -38 -20 -66 -21 -63 -43 -70 -43
-15 0 32 -5 41 -25 50 -14 6 -25 18 -25 27 0 19 29 20 36 0 9 -21 31 -19 44 6
12 22 36 21 33 -2z m-1712 -41 c3 -155 -4 -314 -13 -326 -56 -67 -238 -49
-238 22 0 14 8 29 17 35 16 9 16 12 -6 51 -30 54 -31 126 -2 175 11 20 21 47
21 61 0 24 0 24 110 24 l110 0 1 -42z m-6770 1 c6 -13 10 -58 7 -115 l-3 -94
112 0 c88 0 115 -3 127 -16 21 -21 20 -51 -3 -65 -15 -10 -17 -16 -7 -41 10
-26 8 -32 -12 -48 -13 -11 -18 -21 -12 -25 17 -11 11 -53 -11 -68 -13 -9 -16
-17 -10 -22 16 -9 13 -51 -4 -65 -17 -14 -340 -11 -362 3 -10 6 -13 50 -13
161 l0 152 35 34 c38 37 65 107 65 170 0 20 5 41 12 48 20 20 66 15 79 -9z
m-2217 -4 c18 -13 17 -16 -12 -87 -63 -152 -66 -327 -6 -472 7 -18 3 -19 -64
-13 -40 3 -77 9 -82 12 -6 4 -10 66 -10 154 l0 148 38 40 c41 43 62 97 62 161
0 61 34 88 74 57z m8271 0 c20 -8 44 -29 56 -49 22 -37 39 -39 39 -6 0 49 85
81 154 58 51 -17 72 -47 52 -74 -11 -14 -19 -16 -29 -9 -8 6 -26 18 -40 28
-18 13 -33 16 -49 11 -21 -7 -20 -9 12 -14 23 -3 38 -12 45 -27 5 -12 22 -28
38 -34 52 -22 61 -70 21 -118 l-25 -30 20 -45 c30 -68 78 -135 144 -197 l58
-57 -83 -65 -83 -65 -44 32 c-77 54 -205 182 -239 238 -17 30 -38 77 -44 106
l-13 52 -43 0 c-92 0 -137 52 -130 151 5 64 23 93 73 115 39 17 68 17 110 -1z
m413 3 c13 -13 18 -222 6 -252 -7 -18 -49 -22 -60 -5 -12 20 -6 239 7 255 14
17 31 18 47 2z m1657 -88 c15 -44 30 -82 34 -84 4 -3 19 33 34 79 29 88 44
109 71 99 26 -10 19 -42 -39 -195 -62 -164 -76 -181 -144 -177 -42 3 -46 5
-46 28 0 21 5 26 33 28 58 6 59 30 7 167 -25 65 -45 120 -45 121 0 2 7 10 16
18 27 27 50 3 79 -84z m1916 82 c11 -18 13 -18 49 0 32 16 42 17 75 6 50 -17
77 -55 83 -116 8 -89 -41 -152 -120 -152 -19 0 -44 7 -56 16 -22 15 -22 15
-22 -38 0 -64 -9 -81 -41 -76 l-24 3 -3 174 c-3 175 2 201 34 201 8 0 19 -8
25 -18z m307 -130 c-3 -125 -3 -127 -27 -130 -39 -6 -45 10 -43 135 1 98 4
120 18 130 12 9 22 9 36 2 17 -9 18 -21 16 -137z m632 132 c42 -17 60 -39 60
-72 0 -34 -29 -35 -66 -2 -43 37 -66 38 -93 4 -29 -37 -27 -89 4 -119 32 -33
49 -31 90 10 35 34 58 37 69 9 8 -20 -8 -47 -40 -73 -32 -26 -111 -28 -154 -6
-91 47 -77 219 20 252 47 16 63 16 110 -3z m439 2 c10 -12 17 -12 51 1 36 15
42 14 79 -4 35 -18 42 -18 55 -5 8 8 33 15 56 16 34 1 46 -4 66 -27 13 -16 24
-34 24 -42 0 -12 4 -12 28 1 59 30 154 12 201 -40 l25 -26 30 29 c85 82 219
63 276 -39 20 -36 25 -58 25 -115 -1 -59 -6 -80 -34 -134 -36 -70 -158 -199
-247 -263 l-52 -36 -78 62 c-101 80 -187 175 -222 245 -24 51 -27 68 -30 188
-4 139 -10 155 -52 133 -21 -11 -29 -44 -33 -140 l-2 -65 -30 0 -30 0 -5 95
c-6 120 -18 140 -64 107 -14 -10 -19 -34 -24 -107 l-7 -95 -30 0 -30 0 -3 124
c-3 123 4 151 33 151 7 0 18 -6 24 -14z m11741 -182 l0 -184 -109 0 -108 0 -2
176 c0 97 1 180 4 184 3 4 52 8 110 8 l105 1 0 -185z m-26748 136 c165 -77
351 -77 514 -1 l63 30 7 -35 c22 -118 -73 -273 -250 -409 -42 -31 -81 -55 -89
-52 -26 10 -167 128 -208 175 -84 95 -129 208 -115 286 4 20 8 36 10 36 2 0
33 -14 68 -30z m1831 -1 c12 -6 34 -23 50 -37 l27 -26 28 26 c42 39 66 48 130
48 75 0 118 -26 151 -94 60 -120 18 -244 -132 -391 -51 -49 -111 -103 -134
-118 l-42 -29 -63 48 c-168 127 -268 270 -268 381 0 122 71 203 178 203 29 0
63 -5 75 -11z m15122 -15 c13 -14 16 -34 13 -115 l-3 -99 105 0 c79 0 111 -4
128 -16 25 -18 29 -46 7 -67 -10 -10 -13 -25 -9 -45 4 -19 1 -34 -10 -45 -11
-10 -14 -25 -10 -45 4 -18 1 -34 -9 -43 -9 -9 -12 -27 -10 -46 4 -25 0 -34
-22 -49 -23 -15 -42 -16 -157 -10 -72 3 -148 9 -169 12 l-39 7 0 154 c0 154 0
155 25 175 38 30 67 94 72 162 5 62 20 86 54 86 10 0 25 -7 34 -16z m-9581
-13 c15 -17 17 -35 14 -120 l-3 -101 116 0 c119 0 139 -6 139 -42 0 -10 -9
-27 -20 -38 -11 -11 -15 -22 -10 -25 17 -10 11 -43 -11 -64 -13 -12 -17 -21
-10 -26 18 -10 13 -43 -10 -64 -13 -12 -17 -21 -10 -26 16 -10 13 -41 -6 -61
-15 -15 -35 -16 -173 -11 -85 3 -165 9 -177 13 -23 6 -23 9 -23 158 0 151 0
153 26 177 39 37 64 92 70 161 8 84 47 114 88 69z m17136 -16 c8 -10 11 -46 8
-114 l-3 -100 120 -3 120 -3 10 -29 c8 -24 6 -31 -13 -46 -13 -11 -18 -21 -12
-25 17 -11 11 -53 -11 -68 -13 -9 -16 -17 -10 -22 18 -11 12 -53 -10 -68 -13
-9 -16 -17 -10 -22 16 -10 13 -41 -6 -61 -15 -15 -36 -16 -177 -12 -89 3 -169
9 -178 13 -16 6 -18 24 -18 159 l0 151 34 33 c39 38 66 106 66 167 0 22 5 46
12 53 17 17 63 15 78 -3z m-11982 -54 c-12 -44 -59 -95 -113 -124 -60 -31
-187 -36 -247 -9 -43 18 -87 65 -101 105 -6 16 -3 17 31 10 110 -22 300 2 386
50 47 27 58 19 44 -32z m8616 23 c16 -16 20 -58 16 -166 l-2 -58 114 0 c75 0
118 -4 126 -12 19 -19 14 -55 -9 -71 -13 -9 -16 -17 -10 -22 15 -9 14 -48 -1
-63 -7 -7 -11 -28 -9 -47 2 -24 -2 -37 -12 -41 -11 -4 -14 -16 -10 -44 8 -59
-11 -64 -187 -56 -80 3 -157 9 -172 12 l-28 6 0 151 0 150 39 42 c42 46 61 95
61 159 0 64 47 97 84 60z m-23659 -30 c13 -13 16 -36 14 -118 l-2 -101 104 -2
c57 -1 112 -2 121 -2 32 -2 35 -81 3 -81 -11 0 -11 -6 -2 -31 11 -27 9 -33 -8
-47 -17 -14 -19 -22 -11 -46 9 -24 7 -31 -12 -46 -13 -11 -18 -21 -12 -25 15
-9 12 -51 -5 -65 -17 -14 -340 -11 -362 3 -10 6 -13 48 -13 154 l0 146 39 42
c42 46 61 95 61 162 0 64 46 95 85 57z m16840 -50 c19 -20 16 -43 -7 -58 -38
-23 -78 35 -42 61 23 17 29 16 49 -3z m-10947 -191 l2 -183 -110 0 -110 0 0
185 0 186 108 -3 107 -3 3 -182z m-2198 -13 l0 -180 -110 0 -110 0 0 180 0
180 110 0 110 0 0 -180z m15568 -62 l-3 -183 -107 -3 -108 -3 0 186 0 185 110
0 110 0 -2 -182z m-9588 -13 l0 -185 -90 0 -90 0 0 51 c0 27 -3 48 -7 46 -5
-3 -9 9 -10 26 -1 18 -5 80 -9 140 l-6 107 106 0 106 0 0 -185z m17138 -12 l2
-183 -110 0 -110 0 0 185 0 186 108 -3 107 -3 3 -182z m-3358 -38 l0 -185 -98
0 c-54 0 -101 2 -103 5 -3 2 0 36 5 75 9 66 2 153 -21 263 l-5 27 111 0 111 0
0 -185z"/>
<path d="M19573 19281 c0 -14 1 -18 4 -9 4 14 8 16 24 8 26 -15 24 -6 -4 13
-22 14 -23 14 -24 -12z"/>
<path d="M19339 19053 c-13 -16 -12 -17 4 -4 9 7 17 15 17 17 0 8 -8 3 -21
-13z"/>
<path d="M19223 18987 c0 -8 6 -14 14 -14 9 0 10 4 2 14 -6 7 -12 13 -14 13
-1 0 -2 -6 -2 -13z"/>
<path d="M9036 1968 c3 -5 10 -6 15 -3 13 9 11 12 -6 12 -8 0 -12 -4 -9 -9z"/>
<path d="M9080 1960 c-9 -6 -10 -10 -3 -10 6 0 15 5 18 10 8 12 4 12 -15 0z"/>
<path d="M8898 1943 c7 -3 16 -2 19 1 4 3 -2 6 -13 5 -11 0 -14 -3 -6 -6z"/>
<path d="M8895 1920 c3 -5 8 -10 11 -10 2 0 4 5 4 10 0 6 -5 10 -11 10 -5 0
-7 -4 -4 -10z"/>
<path d="M8650 1936 c0 -2 9 -6 20 -9 11 -3 18 -1 14 4 -5 9 -34 13 -34 5z"/>
<path d="M17496 668 c-19 -27 -21 -98 -3 -120 21 -27 52 -30 80 -7 54 42 27
149 -37 149 -14 0 -32 -10 -40 -22z"/>
<path d="M13558 660 c3 -24 9 -30 28 -30 28 0 32 21 8 44 -25 26 -41 20 -36
-14z"/>
<path d="M15520 765 c0 -14 5 -25 10 -25 6 0 10 11 10 25 0 14 -4 25 -10 25
-5 0 -10 -11 -10 -25z"/>
<path d="M16161 664 c-15 -33 -12 -36 33 -32 34 3 35 4 23 28 -17 34 -41 36
-56 4z"/>
<path d="M15058 873 c7 -3 16 -2 19 1 4 3 -2 6 -13 5 -11 0 -14 -3 -6 -6z"/>
<path d="M14988 863 c7 -3 16 -2 19 1 4 3 -2 6 -13 5 -11 0 -14 -3 -6 -6z"/>
<path d="M14915 778 c-28 -16 -35 -28 -35 -64 0 -56 59 -83 108 -48 15 10 22
25 22 47 0 38 -7 50 -37 66 -26 14 -33 13 -58 -1z"/>
<path d="M15138 779 c-22 -12 -23 -52 -3 -69 12 -10 21 -10 40 -2 29 13 33 43
9 66 -18 19 -23 19 -46 5z"/>
<path d="M12007 673 c-25 -28 -30 -67 -14 -105 34 -82 131 -34 113 56 -12 60
-65 86 -99 49z"/>
<path d="M13796 675 c-56 -56 -9 -178 56 -144 32 17 38 28 38 77 0 66 -55 106
-94 67z"/>
<path d="M12294 665 c-9 -14 -14 -28 -11 -31 2 -3 30 -4 61 -2 l55 3 -12 25
c-18 37 -70 40 -93 5z"/>
<path d="M12280 575 c0 -25 38 -55 69 -55 31 0 45 12 55 48 7 21 5 22 -58 22
-52 0 -66 -3 -66 -15z"/>
<path d="M16417 673 c-25 -28 -30 -67 -14 -105 25 -60 86 -56 107 6 18 56 -10
116 -55 116 -12 0 -29 -8 -38 -17z"/>
<path d="M14214 682 c-34 -22 -44 -93 -19 -129 37 -53 105 -19 105 54 0 64
-45 103 -86 75z"/>
<path d="M13755 212 c3 -3 -1 -12 -7 -21 -8 -10 -4 -9 10 3 26 23 26 23 7 23
-8 0 -13 -3 -10 -5z"/>
<path d="M16279 143 c-13 -16 -12 -17 4 -4 16 13 21 21 13 21 -2 0 -10 -8 -17
-17z"/>
<path d="M16245 129 c-4 -6 -5 -12 -2 -15 2 -3 7 2 10 11 7 17 1 20 -8 4z"/>
<path d="M16210 100 c-9 -6 -10 -10 -3 -10 6 0 15 5 18 10 8 12 4 12 -15 0z"/>
</g>
</svg>
